<svg id="Layer_2" data-name="Layer 2" xmlns="http://www.w3.org/2000/svg" viewBox="0 0 499.28 147.71">
  <defs>
    <style>
      .cls-1 {
        fill: #505050;
      }

      .cls-1, .cls-2 {
        stroke-width: 0px;
      }

      .cls-2 {
        fill: #eaaa2a;
      }
    </style>
  </defs>
  <g id="Layer_1-2" data-name="Layer 1">
    <g>
      <g>
        <path class="cls-2" d="M95.74,55.55c-.33-3.44-.96-6.85-1.7-10.23-.84-3.36-1.77-6.72-3.01-9.97-2.43-6.53-5.77-12.73-9.79-18.47-4.11-5.68-8.95-10.83-14.35-15.31l-1.88-1.56-1.5,1.96c-6.72,8.75-12.31,18.48-15.93,29-.52,1.29-.86,2.64-1.25,3.97-.37,1.34-.8,2.66-1.12,4.01-.54,2.73-1.26,5.42-1.53,8.21-.82,5.51-.82,11.14-.32,16.7l.52,4.16.92,4.1c.25,1.38.77,2.69,1.19,4.03.44,1.33.85,2.67,1.47,3.93.59,1.27,1.1,2.58,1.76,3.82l2.12,3.63c.74,1.18,1.66,2.26,2.48,3.39.81,1.14,1.74,2.19,2.71,3.2,1.59,1.66,3.31,3.18,5.12,4.56-3.21-1.63-6.52-3.09-9.94-4.3-5.28-1.86-10.8-3.14-16.44-3.75-5.64-.6-11.39-.42-17.04.55l-2.12.38-2.08.54c-1.39.37-2.79.71-4.14,1.19-2.72.92-5.38,2.05-7.94,3.35l-1.94.99.88,2.01c1.93,4.39,4.07,8.7,6.71,12.72,2.52,4.1,5.56,7.87,8.83,11.41,1.73,1.69,3.37,3.46,5.26,4.98.93.77,1.8,1.61,2.79,2.31l2.93,2.15c.96.73,2.04,1.3,3.07,1.95,1.03.64,2.06,1.27,3.17,1.78,1.09.54,2.16,1.11,3.26,1.61l3.38,1.36c4.56,1.66,9.35,2.76,14.22,3.04,4.86.22,9.76-.26,14.4-1.62,9.32-2.73,17.27-8.64,23.24-15.8-6.93,6.25-15.1,11.12-23.96,13.02-2.21.44-4.44.79-6.68.81-2.23.2-4.48,0-6.7-.15-4.46-.49-8.78-1.76-12.94-3.37-8.29-3.42-15.66-8.9-21.85-15.44-5.63-6.09-10.28-13.09-13.89-20.62,1.71-.85,3.45-1.65,5.24-2.32,1.24-.49,2.52-.84,3.8-1.22l1.92-.57,1.95-.43c5.2-1.2,10.6-1.59,16-1.39,5.4.19,10.8,1.06,16.13,2.35,4.36,1.12,8.67,2.53,12.91,4.19,1.89,1.26,3.86,2.39,5.88,3.38,4.93,2.44,10.21,4,15.53,4.98-2.58-.82-5.14-1.7-7.6-2.79-2.48-1.04-4.86-2.27-7.15-3.65-4.59-2.7-8.71-6.13-12.11-10.11-6.75-8.05-10.22-18.37-10.95-28.76-.33-5.2-.2-10.47.72-15.64.28-2.61.99-5.15,1.51-7.72.31-1.27.73-2.52,1.09-3.79.38-1.26.71-2.53,1.22-3.75,3.32-9.11,7.88-17.8,13.6-25.7,4.44,3.73,8.51,7.9,12.04,12.52,4.02,5.29,7.45,11.05,10.09,17.19,1.38,3.05,2.47,6.22,3.48,9.43.89,3.24,1.79,6.49,2.37,9.82,1.23,6.64,1.79,13.44,1.72,20.28.86-6.78,1-13.7.23-20.56Z"/>
        <g>
          <path class="cls-2" d="M92.02,117.42c1.02-1.22,2.08-2.54,3.15-3.97,1.95-2.6,3.3-4.41,4.45-6.31-1.47-.47-2.85-1.27-4.06-2.24-1.34,3.35-3.18,7.37-5.74,12.23.65.07,1.38.17,2.2.3Z"/>
          <path class="cls-2" d="M98.19,97.07c-.47,1.8-1.15,3.99-2.16,6.62,1.23,1.05,2.68,1.9,4.23,2.35.32-.58.63-1.17.94-1.82,1.17-2.47,1.93-5.03,2.68-8.51-1.3-.52-2.95-.98-5.02-1.22-.34,1.35-.58,2.26-.66,2.58Z"/>
          <path class="cls-2" d="M143.53,47.76c-3.36-3.02-8.62-1.84-11.15-1.27-6.43,1.44-10.5,5.22-14.44,8.88-2.93,2.72-5.24,5.55-6.69,8.2-1.01,1.84-1.8,3.79-2.39,5.82-.31-.13-.63-.23-.97-.29-.28-.05-.55-.06-.82-.06.39-7.53,2.43-17.76,9.54-26.58,1.18-1.46,11.74-14.21,19.69-11.81.73.22,4.44,1.49,5.29,4.69.46,1.74-.09,3.37-.65,4.47-.26-.17-.55-.29-.87-.35-1.26-.22-2.47.62-2.69,1.88-.22,1.26.62,2.47,1.88,2.69,1.26.22,2.47-.62,2.69-1.88.08-.46.02-.91-.15-1.31.73-1.26,1.63-3.43,1-5.82-1.01-3.84-5.29-5.31-6.13-5.56-8.55-2.58-19.01,9.72-21.02,12.22-7.39,9.17-9.46,19.8-9.83,27.54-1.65.47-2.98,1.83-3.3,3.64-.24,1.36.15,2.67.94,3.67-.41,1.6-1.08,4.24-1.59,6.23,1.26.41,2.73.83,4.21,1.13.37-2.22.66-4.12.87-5.59,2.27.07,4.31-1.51,4.71-3.81.31-1.73-.4-3.4-1.69-4.43.57-2.05,1.37-4.03,2.38-5.89,1.39-2.53,3.62-5.26,6.45-7.89,3.82-3.55,7.77-7.21,13.87-8.58,2.51-.56,7.17-1.61,10.05.98.28.25,2.75,2.56,2.04,5.12-.22.79-.69,1.39-1.17,1.84-.31-.29-.71-.5-1.16-.58-1.26-.22-2.47.62-2.69,1.88-.22,1.26.62,2.47,1.88,2.69s2.47-.62,2.69-1.88c.06-.35.04-.69-.05-1.02.69-.59,1.39-1.45,1.71-2.61.9-3.27-2.07-6.06-2.41-6.37Z"/>
          <path class="cls-2" d="M89.18,118.31c-.94,1.76-1.97,3.61-3.11,5.58,1.43-1.41,3.14-3.2,4.99-5.35-.7-.1-1.33-.18-1.89-.23Z"/>
          <path class="cls-2" d="M101.31,84.87c-.85,3.31-1.59,6.23-2.14,8.4,2.01.24,3.65.67,4.98,1.18.43-2.13.87-4.6,1.4-7.56.11-.61.21-1.2.31-1.77-1.52-.31-3.02-.73-4.31-1.15-.09.35-.17.67-.23.91Z"/>
        </g>
      </g>
      <g>
        <path class="cls-1" d="M131.6,80.65v9.45h12.69v5.99h-12.69v9.99h14.31v6.16h-21.87v-37.75h21.87v6.16h-14.31Z"/>
        <path class="cls-1" d="M157.63,111.4c-1.94-.88-3.48-2.08-4.62-3.59-1.13-1.51-1.75-3.19-1.86-5.02h7.61c.14,1.15.71,2.11,1.7,2.86s2.22,1.13,3.7,1.13,2.56-.29,3.38-.86c.81-.58,1.21-1.31,1.21-2.21,0-.97-.5-1.7-1.49-2.19-.99-.49-2.56-1.02-4.72-1.59-2.23-.54-4.06-1.1-5.48-1.67-1.42-.58-2.65-1.46-3.67-2.65-1.03-1.19-1.54-2.79-1.54-4.81,0-1.66.48-3.17,1.43-4.54.95-1.37,2.32-2.45,4.1-3.24s3.88-1.19,6.29-1.19c3.56,0,6.41.89,8.53,2.67,2.12,1.78,3.29,4.18,3.51,7.21h-7.24c-.11-1.19-.6-2.13-1.49-2.84-.88-.7-2.06-1.05-3.54-1.05-1.37,0-2.42.25-3.16.76-.74.5-1.11,1.21-1.11,2.11,0,1.01.5,1.77,1.51,2.29,1.01.52,2.57,1.05,4.7,1.59,2.16.54,3.94,1.1,5.35,1.67,1.4.58,2.62,1.47,3.64,2.67,1.03,1.21,1.56,2.8,1.59,4.78,0,1.73-.48,3.28-1.43,4.64s-2.32,2.44-4.1,3.21-3.86,1.16-6.24,1.16-4.64-.44-6.59-1.32Z"/>
        <path class="cls-1" d="M209.79,99.55h-21.87c.18,2.16.94,3.85,2.27,5.08,1.33,1.22,2.97,1.84,4.91,1.84,2.81,0,4.81-1.21,5.99-3.62h8.15c-.86,2.88-2.52,5.25-4.97,7.1-2.45,1.85-5.45,2.78-9.02,2.78-2.88,0-5.46-.64-7.75-1.92-2.29-1.28-4.07-3.09-5.35-5.43-1.28-2.34-1.92-5.04-1.92-8.1s.63-5.81,1.89-8.15c1.26-2.34,3.02-4.14,5.29-5.4,2.27-1.26,4.88-1.89,7.83-1.89s5.39.61,7.64,1.84c2.25,1.22,4,2.96,5.24,5.21,1.24,2.25,1.86,4.83,1.86,7.75,0,1.08-.07,2.05-.22,2.92ZM202.18,94.47c-.04-1.94-.74-3.5-2.11-4.67s-3.04-1.76-5.02-1.76c-1.87,0-3.45.57-4.73,1.7-1.28,1.13-2.06,2.71-2.35,4.73h14.2Z"/>
        <path class="cls-1" d="M261.55,85.27c2.25,2.25,3.38,5.39,3.38,9.42v17.55h-7.56v-16.52c0-2.34-.59-4.13-1.78-5.37-1.19-1.24-2.81-1.86-4.86-1.86s-3.68.62-4.89,1.86c-1.21,1.24-1.81,3.03-1.81,5.37v16.52h-7.56v-16.52c0-2.34-.59-4.13-1.78-5.37-1.19-1.24-2.81-1.86-4.86-1.86s-3.74.62-4.94,1.86c-1.21,1.24-1.81,3.03-1.81,5.37v16.52h-7.56v-29.92h7.56v3.62c.97-1.26,2.22-2.25,3.75-2.97,1.53-.72,3.21-1.08,5.05-1.08,2.34,0,4.43.5,6.26,1.48,1.84.99,3.26,2.4,4.27,4.24.97-1.73,2.38-3.11,4.24-4.16,1.85-1.04,3.86-1.57,6.02-1.57,3.67,0,6.63,1.12,8.88,3.38Z"/>
        <path class="cls-1" d="M283.69,83.19c1.71-.9,3.66-1.35,5.86-1.35,2.56,0,4.87.63,6.94,1.89,2.07,1.26,3.71,3.05,4.91,5.37,1.21,2.32,1.81,5.01,1.81,8.07s-.6,5.77-1.81,8.13c-1.21,2.36-2.84,4.19-4.91,5.48-2.07,1.3-4.38,1.94-6.94,1.94-2.23,0-4.18-.44-5.86-1.32-1.67-.88-3.02-2.03-4.02-3.43v4.27h-7.56v-39.96h7.56v14.42c.97-1.44,2.31-2.61,4.02-3.51ZM294.38,92.5c-.74-1.31-1.71-2.31-2.92-3-1.21-.68-2.51-1.03-3.92-1.03s-2.66.35-3.86,1.05-2.18,1.72-2.92,3.05c-.74,1.33-1.11,2.9-1.11,4.7s.37,3.37,1.11,4.7,1.71,2.35,2.92,3.05,2.49,1.05,3.86,1.05,2.71-.36,3.92-1.08c1.21-.72,2.18-1.75,2.92-3.08.74-1.33,1.11-2.92,1.11-4.75s-.37-3.36-1.11-4.67Z"/>
        <path class="cls-1" d="M316.28,72.28v39.96h-7.56v-39.96h7.56Z"/>
        <path class="cls-2" d="M337.26,83.38c1.67-2.93,3.96-5.22,6.86-6.86,2.9-1.64,6.15-2.46,9.75-2.46,4.21,0,7.9,1.08,11.07,3.24,3.17,2.16,5.38,5.15,6.64,8.96h-8.69c-.86-1.8-2.08-3.15-3.65-4.05-1.57-.9-3.38-1.35-5.43-1.35-2.2,0-4.15.51-5.86,1.54s-3.04,2.48-4,4.35c-.95,1.87-1.43,4.07-1.43,6.59s.48,4.67,1.43,6.56,2.29,3.35,4,4.37c1.71,1.03,3.66,1.54,5.86,1.54,2.05,0,3.86-.46,5.43-1.38,1.57-.92,2.78-2.28,3.65-4.08h8.69c-1.26,3.85-3.46,6.85-6.62,8.99s-6.85,3.21-11.1,3.21c-3.6,0-6.85-.82-9.75-2.46-2.9-1.64-5.18-3.92-6.86-6.83-1.67-2.92-2.51-6.23-2.51-9.94s.84-7.03,2.51-9.96Z"/>
        <path class="cls-2" d="M389.42,83.24c1.57-.9,3.36-1.35,5.37-1.35v7.94h-2c-2.38,0-4.17.56-5.37,1.67-1.21,1.12-1.81,3.06-1.81,5.83v14.9h-7.56v-29.92h7.56v4.64c.97-1.58,2.24-2.83,3.81-3.73Z"/>
        <path class="cls-2" d="M399.73,89.13c1.21-2.34,2.84-4.14,4.91-5.4,2.07-1.26,4.38-1.89,6.94-1.89,2.23,0,4.18.45,5.86,1.35,1.67.9,3.01,2.03,4.02,3.4v-4.27h7.61v29.92h-7.61v-4.37c-.97,1.4-2.31,2.57-4.02,3.48s-3.68,1.38-5.91,1.38c-2.52,0-4.81-.65-6.88-1.94s-3.71-3.12-4.91-5.48c-1.21-2.36-1.81-5.07-1.81-8.13s.6-5.71,1.81-8.05ZM420.39,92.56c-.72-1.31-1.69-2.32-2.92-3.02-1.22-.7-2.54-1.05-3.94-1.05s-2.7.34-3.89,1.03c-1.19.68-2.15,1.68-2.89,3-.74,1.31-1.11,2.87-1.11,4.67s.37,3.38,1.11,4.73c.74,1.35,1.71,2.38,2.92,3.1,1.21.72,2.49,1.08,3.86,1.08s2.72-.35,3.94-1.05c1.22-.7,2.2-1.71,2.92-3.02.72-1.31,1.08-2.89,1.08-4.72s-.36-3.41-1.08-4.72Z"/>
        <path class="cls-2" d="M450.19,88.53h-5.24v23.71h-7.67v-23.71h-3.4v-6.21h3.4v-1.51c0-3.67,1.04-6.37,3.13-8.1,2.09-1.73,5.24-2.54,9.45-2.43v6.37c-1.84-.04-3.11.27-3.83.92-.72.65-1.08,1.82-1.08,3.51v1.24h5.24v6.21Z"/>
        <path class="cls-2" d="M463.91,88.53v14.47c0,1.01.24,1.74.73,2.19.49.45,1.3.67,2.46.67h3.51v6.37h-4.75c-6.37,0-9.56-3.1-9.56-9.29v-14.42h-3.56v-6.21h3.56v-7.4h7.61v7.4h6.7v6.21h-6.7Z"/>
        <path class="cls-2" d="M480.92,111.4c-1.94-.88-3.48-2.08-4.62-3.59-1.13-1.51-1.75-3.19-1.86-5.02h7.61c.14,1.15.71,2.11,1.7,2.86s2.22,1.13,3.7,1.13,2.56-.29,3.38-.86c.81-.58,1.21-1.31,1.21-2.21,0-.97-.5-1.7-1.49-2.19-.99-.49-2.56-1.02-4.72-1.59-2.23-.54-4.06-1.1-5.48-1.67-1.42-.58-2.65-1.46-3.67-2.65-1.03-1.19-1.54-2.79-1.54-4.81,0-1.66.48-3.17,1.43-4.54.95-1.37,2.32-2.45,4.1-3.24s3.88-1.19,6.29-1.19c3.56,0,6.41.89,8.53,2.67,2.12,1.78,3.29,4.18,3.51,7.21h-7.24c-.11-1.19-.6-2.13-1.49-2.84-.88-.7-2.06-1.05-3.54-1.05-1.37,0-2.42.25-3.16.76-.74.5-1.11,1.21-1.11,2.11,0,1.01.5,1.77,1.51,2.29,1.01.52,2.57,1.05,4.7,1.59,2.16.54,3.94,1.1,5.35,1.67,1.4.58,2.62,1.47,3.64,2.67,1.03,1.21,1.56,2.8,1.59,4.78,0,1.73-.48,3.28-1.43,4.64s-2.32,2.44-4.1,3.21-3.86,1.16-6.24,1.16-4.64-.44-6.59-1.32Z"/>
      </g>
      <g>
        <path class="cls-1" d="M125.6,128.29v5.13h5.59v1.65h-5.59v5.28h6.25v1.65h-8.25v-15.36h8.25v1.65h-6.25Z"/>
        <path class="cls-1" d="M157.78,130.3c.73.39,1.31.97,1.74,1.75.42.78.64,1.72.64,2.84v7.11h-1.98v-6.82c0-1.2-.3-2.12-.89-2.76s-1.4-.96-2.41-.96-1.87.33-2.49,1c-.62.67-.92,1.63-.92,2.89v6.64h-1.98v-6.82c0-1.2-.3-2.12-.89-2.76-.59-.64-1.4-.96-2.41-.96s-1.87.33-2.49,1c-.62.67-.92,1.63-.92,2.89v6.64h-2v-12.06h2v1.74c.4-.63.93-1.11,1.59-1.45.67-.34,1.4-.51,2.21-.51,1.01,0,1.91.23,2.68.68.78.45,1.36,1.12,1.74,2,.34-.85.89-1.51,1.67-1.98.78-.47,1.64-.7,2.6-.7s1.77.2,2.51.58Z"/>
        <path class="cls-1" d="M173.1,130.43c.78-.46,1.7-.69,2.74-.69s2.04.26,2.92.77c.87.51,1.56,1.24,2.06,2.17.5.93.75,2.01.75,3.25s-.25,2.3-.75,3.26c-.5.95-1.18,1.69-2.06,2.22-.87.53-1.84.79-2.92.79s-1.93-.23-2.72-.69c-.79-.46-1.38-1.04-1.79-1.73v7.94h-2v-17.78h2v2.22c.4-.69.99-1.26,1.77-1.73ZM178.97,133.55c-.37-.67-.86-1.19-1.49-1.54-.62-.35-1.31-.53-2.06-.53s-1.41.18-2.04.54-1.12.88-1.5,1.56-.56,1.47-.56,2.37.19,1.71.56,2.39.87,1.2,1.5,1.56,1.3.54,2.04.54,1.43-.18,2.06-.54,1.12-.88,1.49-1.56c.37-.68.55-1.49.55-2.41s-.18-1.7-.55-2.38Z"/>
        <path class="cls-1" d="M192.29,141.42c-.92-.51-1.64-1.24-2.16-2.19-.52-.95-.78-2.04-.78-3.29s.27-2.32.8-3.27c.54-.95,1.26-1.67,2.19-2.18.92-.51,1.96-.76,3.1-.76s2.18.25,3.1.76c.92.51,1.65,1.23,2.19,2.17s.8,2.03.8,3.28-.27,2.34-.83,3.29c-.55.95-1.29,1.68-2.23,2.19-.94.51-1.98.77-3.12.77s-2.15-.26-3.07-.77ZM197.38,139.93c.63-.34,1.14-.84,1.53-1.52s.58-1.5.58-2.46-.19-1.79-.57-2.46c-.38-.67-.88-1.18-1.5-1.51-.62-.33-1.28-.49-2-.49s-1.4.17-2.01.49c-.61.33-1.1.83-1.46,1.51-.37.67-.55,1.5-.55,2.46s.18,1.81.54,2.49c.36.67.84,1.18,1.44,1.51s1.26.5,1.98.5,1.39-.17,2.02-.51Z"/>
        <path class="cls-1" d="M226.14,129.94l-3.76,12.06h-2.07l-2.9-9.57-2.9,9.57h-2.07l-3.78-12.06h2.05l2.77,10.12,2.99-10.12h2.05l2.93,10.14,2.73-10.14h1.98Z"/>
        <path class="cls-1" d="M244.95,136.71h-9.64c.07,1.19.48,2.12,1.22,2.78.74.67,1.64,1,2.7,1,.87,0,1.59-.2,2.17-.6.58-.4.99-.94,1.22-1.62h2.16c-.32,1.16-.97,2.1-1.94,2.83-.97.73-2.17,1.09-3.61,1.09-1.14,0-2.17-.26-3.07-.77-.9-.51-1.61-1.24-2.12-2.19-.51-.95-.77-2.04-.77-3.29s.25-2.34.75-3.28c.5-.94,1.2-1.66,2.1-2.17s1.94-.76,3.11-.76,2.16.25,3.04.75,1.56,1.18,2.03,2.06c.48.87.72,1.86.72,2.96,0,.38-.02.79-.07,1.21ZM242.44,133.12c-.34-.55-.8-.97-1.38-1.25-.58-.29-1.22-.43-1.92-.43-1.01,0-1.87.32-2.58.97-.71.65-1.12,1.54-1.22,2.68h7.61c0-.76-.17-1.42-.51-1.97Z"/>
        <path class="cls-1" d="M257.06,130.29c.65-.38,1.45-.57,2.39-.57v2.07h-.53c-2.24,0-3.37,1.22-3.37,3.65v6.56h-2v-12.06h2v1.96c.35-.69.85-1.22,1.51-1.61Z"/>
        <path class="cls-1" d="M290.16,126.66l-4.99,9.55v5.79h-2v-5.79l-5.02-9.55h2.22l3.78,7.77,3.78-7.77h2.22Z"/>
        <path class="cls-1" d="M300.35,141.42c-.92-.51-1.64-1.24-2.16-2.19-.52-.95-.78-2.04-.78-3.29s.27-2.32.8-3.27c.54-.95,1.26-1.67,2.19-2.18.92-.51,1.96-.76,3.1-.76s2.18.25,3.1.76c.92.51,1.65,1.23,2.19,2.17s.8,2.03.8,3.28-.27,2.34-.83,3.29c-.55.95-1.29,1.68-2.23,2.19-.94.51-1.98.77-3.12.77s-2.15-.26-3.07-.77ZM305.45,139.93c.63-.34,1.14-.84,1.53-1.52s.58-1.5.58-2.46-.19-1.79-.57-2.46c-.38-.67-.88-1.18-1.5-1.51-.62-.33-1.28-.49-2-.49s-1.4.17-2.01.49c-.61.33-1.1.83-1.46,1.51-.37.67-.55,1.5-.55,2.46s.18,1.81.54,2.49c.36.67.84,1.18,1.44,1.51s1.26.5,1.98.5,1.39-.17,2.02-.51Z"/>
        <path class="cls-1" d="M328.83,129.94v12.06h-2v-1.78c-.38.62-.91,1.1-1.59,1.44s-1.43.52-2.25.52c-.94,0-1.78-.19-2.53-.58s-1.34-.97-1.77-1.75c-.43-.78-.65-1.72-.65-2.84v-7.06h1.98v6.8c0,1.19.3,2.1.9,2.74.6.64,1.42.96,2.46.96s1.91-.33,2.53-.99.92-1.62.92-2.88v-6.62h2Z"/>
        <path class="cls-1" d="M341.63,130.29c.65-.38,1.45-.57,2.39-.57v2.07h-.53c-2.24,0-3.37,1.22-3.37,3.65v6.56h-2v-12.06h2v1.96c.35-.69.85-1.22,1.51-1.61Z"/>
        <path class="cls-1" d="M373.2,134.78c.46.37.83.82,1.1,1.36.27.54.41,1.12.41,1.74,0,.78-.2,1.48-.59,2.1-.4.62-.97,1.11-1.73,1.47-.76.36-1.65.54-2.67.54h-5.72v-15.33h5.5c1.04,0,1.93.17,2.66.52.73.34,1.28.81,1.65,1.4s.55,1.25.55,1.98c0,.91-.25,1.66-.74,2.26-.49.59-1.14,1.02-1.95,1.29.56.09,1.07.32,1.53.68ZM365.99,133.28h3.37c.94,0,1.67-.22,2.18-.66.51-.44.77-1.05.77-1.83s-.26-1.39-.77-1.83c-.51-.44-1.25-.66-2.22-.66h-3.32v4.97ZM371.86,139.64c.56-.47.84-1.12.84-1.96s-.29-1.52-.88-2.01c-.59-.49-1.37-.74-2.35-.74h-3.48v5.41h3.54c1,0,1.77-.23,2.33-.7Z"/>
        <path class="cls-1" d="M394.06,129.94v12.06h-2v-1.78c-.38.62-.91,1.1-1.59,1.44s-1.43.52-2.25.52c-.94,0-1.78-.19-2.53-.58s-1.34-.97-1.77-1.75c-.43-.78-.65-1.72-.65-2.84v-7.06h1.98v6.8c0,1.19.3,2.1.9,2.74.6.64,1.42.96,2.46.96s1.91-.33,2.53-.99.92-1.62.92-2.88v-6.62h2Z"/>
        <path class="cls-1" d="M405.13,141.72c-.73-.31-1.31-.75-1.74-1.32-.43-.56-.66-1.21-.7-1.95h2.07c.06.6.34,1.09.85,1.47.51.38,1.17.57,1.99.57.76,0,1.36-.17,1.8-.51.44-.34.66-.76.66-1.28s-.24-.92-.7-1.18c-.47-.26-1.2-.51-2.18-.76-.9-.23-1.62-.47-2.19-.71s-1.05-.6-1.45-1.08-.6-1.1-.6-1.88c0-.62.18-1.18.55-1.69.37-.51.89-.92,1.56-1.22s1.44-.45,2.31-.45c1.33,0,2.41.34,3.23,1.01.82.67,1.26,1.6,1.32,2.77h-2c-.04-.63-.3-1.14-.76-1.52-.46-.38-1.08-.57-1.86-.57-.72,0-1.29.15-1.72.46-.43.31-.64.71-.64,1.21,0,.4.13.72.38.98.26.26.58.46.97.62s.93.33,1.62.52c.87.24,1.57.47,2.11.69.54.23,1.01.57,1.4,1.02.39.45.59,1.05.61,1.78,0,.66-.18,1.25-.55,1.78-.37.53-.88.94-1.55,1.24s-1.43.45-2.3.45c-.92,0-1.75-.16-2.49-.47Z"/>
        <path class="cls-1" d="M420.79,127.58c-.26-.26-.4-.59-.4-.97s.13-.7.4-.97.59-.4.97-.4.68.13.94.4c.26.26.38.59.38.97s-.13.7-.38.97-.57.4-.94.4-.7-.13-.97-.4ZM422.73,129.94v12.06h-2v-12.06h2Z"/>
        <path class="cls-1" d="M441.47,131.05c.91.89,1.36,2.17,1.36,3.84v7.11h-1.98v-6.82c0-1.2-.3-2.12-.9-2.76-.6-.64-1.42-.96-2.46-.96s-1.9.33-2.52.99-.93,1.62-.93,2.88v6.67h-2v-12.06h2v1.72c.4-.62.93-1.09,1.62-1.43.68-.34,1.43-.51,2.25-.51,1.47,0,2.65.44,3.56,1.33Z"/>
        <path class="cls-1" d="M462.94,136.71h-9.64c.07,1.19.48,2.12,1.22,2.78.74.67,1.64,1,2.7,1,.87,0,1.59-.2,2.17-.6.58-.4.99-.94,1.22-1.62h2.16c-.32,1.16-.97,2.1-1.94,2.83-.97.73-2.17,1.09-3.61,1.09-1.14,0-2.17-.26-3.07-.77-.9-.51-1.61-1.24-2.12-2.19-.51-.95-.77-2.04-.77-3.29s.25-2.34.75-3.28c.5-.94,1.2-1.66,2.1-2.17s1.94-.76,3.11-.76,2.16.25,3.04.75,1.56,1.18,2.03,2.06c.48.87.72,1.86.72,2.96,0,.38-.02.79-.07,1.21ZM460.43,133.12c-.34-.55-.8-.97-1.38-1.25-.58-.29-1.22-.43-1.92-.43-1.01,0-1.87.32-2.58.97-.71.65-1.12,1.54-1.22,2.68h7.61c0-.76-.17-1.42-.51-1.97Z"/>
        <path class="cls-1" d="M473.33,141.72c-.73-.31-1.31-.75-1.74-1.32-.43-.56-.66-1.21-.7-1.95h2.07c.06.6.34,1.09.85,1.47.51.38,1.17.57,1.99.57.76,0,1.36-.17,1.8-.51.44-.34.66-.76.66-1.28s-.24-.92-.7-1.18c-.47-.26-1.2-.51-2.18-.76-.9-.23-1.62-.47-2.19-.71s-1.05-.6-1.45-1.08-.6-1.1-.6-1.88c0-.62.18-1.18.55-1.69.37-.51.89-.92,1.56-1.22s1.44-.45,2.31-.45c1.33,0,2.41.34,3.23,1.01.82.67,1.26,1.6,1.32,2.77h-2c-.04-.63-.3-1.14-.76-1.52-.46-.38-1.08-.57-1.86-.57-.72,0-1.29.15-1.72.46-.43.31-.64.71-.64,1.21,0,.4.13.72.38.98.26.26.58.46.97.62s.93.33,1.62.52c.87.24,1.57.47,2.11.69.54.23,1.01.57,1.4,1.02.39.45.59,1.05.61,1.78,0,.66-.18,1.25-.55,1.78-.37.53-.88.94-1.55,1.24s-1.43.45-2.3.45c-.92,0-1.75-.16-2.49-.47Z"/>
        <path class="cls-1" d="M490.71,141.72c-.73-.31-1.31-.75-1.74-1.32-.43-.56-.66-1.21-.7-1.95h2.07c.06.6.34,1.09.85,1.47.51.38,1.17.57,1.99.57.76,0,1.36-.17,1.8-.51.44-.34.66-.76.66-1.28s-.24-.92-.7-1.18c-.47-.26-1.2-.51-2.18-.76-.9-.23-1.62-.47-2.19-.71s-1.05-.6-1.45-1.08-.6-1.1-.6-1.88c0-.62.18-1.18.55-1.69.37-.51.89-.92,1.56-1.22s1.44-.45,2.31-.45c1.33,0,2.41.34,3.23,1.01.82.67,1.26,1.6,1.32,2.77h-2c-.04-.63-.3-1.14-.76-1.52-.46-.38-1.08-.57-1.86-.57-.72,0-1.29.15-1.72.46-.43.31-.64.71-.64,1.21,0,.4.13.72.38.98.26.26.58.46.97.62s.93.33,1.62.52c.87.24,1.57.47,2.11.69.54.23,1.01.57,1.4,1.02.39.45.59,1.05.61,1.78,0,.66-.18,1.25-.55,1.78-.37.53-.88.94-1.55,1.24s-1.43.45-2.3.45c-.92,0-1.75-.16-2.49-.47Z"/>
      </g>
    </g>
  </g>
</svg>