<svg width="19" height="23" viewBox="0 0 24 24" fill="none" xmlns="http://www.w3.org/2000/svg">
<path d="M15.8333 15.75V15.9571L15.9798 16.1036L18.1667 18.2904V18.75H0.5V18.2904L2.68689 16.1036L2.83333 15.9571V15.75V9.91667C2.83333 6.4977 4.62719 3.75759 7.69861 3.02986L8.08333 2.93871V2.54333V1.75C8.08333 1.05781 8.64114 0.5 9.33333 0.5C10.0255 0.5 10.5833 1.05781 10.5833 1.75V2.54333V2.93839L10.9677 3.02977C14.0281 3.75743 15.8333 6.50982 15.8333 9.91667V15.75ZM11.0967 20.9167C10.8773 21.6834 10.1674 22.25 9.33333 22.25C8.49072 22.25 7.78612 21.6843 7.56904 20.9167H11.0967Z" fill="white" stroke="#747474"/>
</svg>
