<svg width="214" height="290" viewBox="0 0 214 290" fill="none" xmlns="http://www.w3.org/2000/svg">
<g clip-path="url(#clip0_107_1399)">
<path d="M176.95 279.496C178.208 279.575 178.903 278.009 177.951 277.096L177.857 276.719C177.869 276.689 177.882 276.659 177.894 276.629C179.167 273.589 183.48 273.61 184.741 276.654C185.861 279.356 187.287 282.062 187.638 284.919C187.795 286.18 187.725 287.464 187.445 288.702C190.069 282.96 191.45 276.691 191.45 270.386C191.45 268.801 191.364 267.217 191.187 265.637C191.041 264.345 190.84 263.06 190.581 261.787C189.176 254.907 186.135 248.354 181.749 242.88C179.64 241.725 177.882 239.921 176.819 237.757C176.438 236.977 176.139 236.138 175.997 235.282C176.237 235.314 176.902 231.653 176.721 231.429C177.056 230.92 177.654 230.667 178.019 230.171C179.836 227.705 182.339 228.135 183.645 231.488C186.436 232.899 186.463 235.239 184.75 237.489C183.661 238.921 183.511 240.858 182.555 242.391C182.654 242.517 182.756 242.64 182.854 242.766C184.658 245.083 186.218 247.573 187.533 250.19C187.161 247.282 187.71 243.779 188.645 241.52C189.71 238.947 191.706 236.78 193.463 234.556C195.574 231.884 199.903 233.05 200.275 236.437C200.279 236.47 200.282 236.503 200.286 236.536C200.025 236.683 199.769 236.84 199.519 237.005C198.094 237.949 198.587 240.162 200.275 240.423L200.313 240.429C200.219 241.371 200.058 242.305 199.822 243.223C202.076 251.957 197.209 255.138 190.258 255.281C190.105 255.36 189.955 255.439 189.802 255.514C190.506 257.5 191.069 259.537 191.486 261.602C191.859 263.426 192.119 265.271 192.264 267.123C192.445 269.46 192.43 271.808 192.233 274.141L192.245 274.058C192.744 271.489 194.137 269.089 196.159 267.426C199.171 264.948 203.427 264.035 206.677 262.042C208.241 261.083 210.246 262.323 209.973 264.139L209.96 264.226C209.476 264.423 209.004 264.652 208.547 264.908C208.286 265.056 208.031 265.212 207.781 265.378C206.356 266.322 206.848 268.535 208.537 268.796L208.575 268.802C208.602 268.805 208.626 268.809 208.654 268.813C207.823 270.788 206.667 272.62 205.219 274.2C203.809 281.825 197.754 282.548 191.277 280.328H191.273C190.565 283.417 189.53 286.436 188.201 289.313H177.225C177.185 289.19 177.15 289.064 177.115 288.942C178.13 289.005 179.152 288.946 180.152 288.761C179.337 287.76 178.523 286.751 177.709 285.75C177.689 285.731 177.673 285.711 177.657 285.691C177.244 285.179 176.827 284.671 176.414 284.158L176.414 284.158C176.388 282.585 176.577 281.017 176.95 279.496Z" fill="#F4D18C" fill-opacity="0.6"/>
<path d="M62.0607 270.879C59.6977 271.027 58.3917 268.086 60.1795 266.372L60.3573 265.664C60.3339 265.607 60.3104 265.551 60.2867 265.494C57.897 259.786 49.7982 259.826 47.4289 265.542C45.3259 270.615 42.6485 275.697 41.9893 281.062C41.6938 283.43 41.8267 285.842 42.3513 288.166C37.4237 277.384 34.8307 265.61 34.8307 253.77C34.8307 250.796 34.9933 247.821 35.3257 244.853C35.599 242.426 35.9758 240.014 36.4634 237.624C39.1007 224.703 44.8114 212.397 53.0485 202.118C57.0082 199.95 60.3105 196.561 62.3051 192.498C63.0217 191.033 63.5832 189.457 63.8491 187.851C63.3985 187.91 62.1499 181.036 62.4898 180.614C61.8618 179.659 60.7378 179.185 60.0519 178.253C56.6408 173.621 51.9411 174.43 49.4876 180.725C44.2465 183.375 44.1958 187.769 47.4117 191.995C49.4577 194.684 49.7388 198.322 51.534 201.201C51.3493 201.437 51.1572 201.667 50.9725 201.904C47.5857 206.255 44.6565 210.932 42.1871 215.845C42.885 210.385 41.8546 203.806 40.098 199.565C38.0985 194.733 34.3506 190.664 31.0501 186.487C27.0858 181.47 18.9564 183.659 18.258 190.02C18.2512 190.081 18.2447 190.143 18.2382 190.204C18.7284 190.481 19.2087 190.776 19.6778 191.086C22.3537 192.859 21.4289 197.014 18.2583 197.504L18.1865 197.515C18.3638 199.284 18.6667 201.038 19.1099 202.762C14.8759 219.164 24.0169 225.138 37.0691 225.406C37.3572 225.554 37.638 225.702 37.9261 225.843C36.6037 229.572 35.5473 233.398 34.7642 237.276C34.0624 240.702 33.5748 244.165 33.3015 247.643C32.9616 252.031 32.9912 256.442 33.3606 260.823L33.3384 260.667C32.4002 255.842 29.785 251.336 25.9878 248.213C20.331 243.558 12.3391 241.844 6.23653 238.103C3.29891 236.302 -0.465439 238.629 0.0472554 242.041L0.0722158 242.204C0.980878 242.574 1.86736 243.003 2.72433 243.484C3.21456 243.761 3.69482 244.056 4.16395 244.366C6.83983 246.139 5.91504 250.294 2.74443 250.784L2.67257 250.796C2.62088 250.803 2.57653 250.81 2.52489 250.818C4.08367 254.525 6.25557 257.966 8.9742 260.934C11.6216 275.252 22.9925 276.61 35.1558 272.441H35.1632C36.4929 278.242 38.4359 283.911 40.9329 289.313H61.5442C61.6181 289.083 61.6846 288.846 61.7511 288.617C59.8451 288.735 57.9243 288.624 56.0478 288.277C57.5771 286.397 59.1063 284.503 60.6355 282.623C60.6725 282.586 60.7021 282.549 60.7316 282.512C61.5073 281.55 62.2904 280.595 63.066 279.633L63.0664 279.632C63.115 276.679 62.7616 273.736 62.0613 270.879L62.0607 270.879Z" fill="#F4D18C" fill-opacity="0.6"/>
<path d="M137.072 87.5952C137.072 87.4548 137.066 87.3206 137.06 87.1803C137.06 87.0644 137.054 86.9485 137.048 86.8325H130.269C130.11 86.9972 129.952 87.1498 129.787 87.284C129.714 87.3511 129.635 87.4122 129.562 87.467C129.507 87.5159 129.452 87.5525 129.398 87.5891C129.245 87.6928 129.099 87.7843 128.947 87.8575C128.892 87.888 128.837 87.9124 128.782 87.9307C128.648 87.9917 128.514 88.0283 128.38 88.0528H137.078C137.078 87.9002 137.078 87.7477 137.072 87.5952ZM123.569 87.7477C123.355 87.7355 123.148 87.7172 122.935 87.705C122.259 87.6562 121.571 87.6135 120.883 87.5647C120.535 87.5403 120.194 87.522 119.853 87.4975C119.817 87.4975 119.786 87.4854 119.75 87.4731C119.731 87.4609 119.713 87.4548 119.695 87.4365C119.658 87.4182 119.616 87.3816 119.579 87.3389C119.543 87.3023 119.506 87.2535 119.469 87.2047C119.439 87.162 119.402 87.1071 119.372 87.0583C119.329 86.9851 119.293 86.9118 119.25 86.8325H116.771C116.735 86.8996 116.698 86.9546 116.668 87.0033L116.655 87.0156C116.625 87.0583 116.595 87.101 116.564 87.1315C116.491 87.2108 116.424 87.2535 116.357 87.2474C116.229 87.2352 116.101 87.223 115.979 87.1925C115.931 87.1864 115.888 87.1742 115.839 87.162C115.797 87.1498 115.748 87.1376 115.705 87.1254C115.608 87.0949 115.51 87.0583 115.419 87.0217C115.395 87.0094 115.37 87.0033 115.346 86.9912C115.242 86.9423 115.139 86.8935 115.035 86.8325H107.349C107.05 87.2291 106.776 87.6379 106.514 88.0527H127.668C126.431 87.9429 125.03 87.8453 123.569 87.7477ZM137.072 87.5952C137.072 87.4548 137.066 87.3206 137.06 87.1803C137.06 87.0644 137.054 86.9485 137.048 86.8325H130.269C130.11 86.9972 129.952 87.1498 129.787 87.284C129.714 87.3511 129.635 87.4122 129.562 87.467C129.507 87.5159 129.452 87.5525 129.398 87.5891C129.245 87.6928 129.099 87.7843 128.947 87.8575C128.892 87.888 128.837 87.9124 128.782 87.9307C128.648 87.9917 128.514 88.0283 128.38 88.0528H137.078C137.078 87.9002 137.078 87.7477 137.072 87.5952ZM123.569 87.7477C123.355 87.7355 123.148 87.7172 122.935 87.705C122.259 87.6562 121.571 87.6135 120.883 87.5647C120.535 87.5403 120.194 87.522 119.853 87.4975C119.817 87.4975 119.786 87.4854 119.75 87.4731C119.731 87.4609 119.713 87.4548 119.695 87.4365C119.658 87.4182 119.616 87.3816 119.579 87.3389C119.543 87.3023 119.506 87.2535 119.469 87.2047C119.439 87.162 119.402 87.1071 119.372 87.0583C119.329 86.9851 119.293 86.9118 119.25 86.8325H116.771C116.735 86.8996 116.698 86.9546 116.668 87.0033L116.655 87.0156C116.625 87.0583 116.595 87.101 116.564 87.1315C116.491 87.2108 116.424 87.2535 116.357 87.2474C116.229 87.2352 116.101 87.223 115.979 87.1925C115.931 87.1864 115.888 87.1742 115.839 87.162C115.797 87.1498 115.748 87.1376 115.705 87.1254C115.608 87.0949 115.51 87.0583 115.419 87.0217C115.395 87.0094 115.37 87.0033 115.346 86.9912C115.242 86.9423 115.139 86.8935 115.035 86.8325H107.349C107.05 87.2291 106.776 87.6379 106.514 88.0527H127.668C126.431 87.9429 125.03 87.8453 123.569 87.7477ZM202.415 86.8325H28.2402C21.8509 86.8325 16.6553 92.0368 16.6553 98.4369V278.396C16.6553 284.796 21.8509 290 28.2402 290H202.415C208.804 290 214 284.796 214 278.396V98.4369C214 92.0368 208.804 86.8325 202.415 86.8325ZM212.782 278.396C212.782 284.125 208.134 288.78 202.415 288.78H28.2402C22.5209 288.78 17.8735 284.125 17.8735 278.396V98.4369C17.8735 92.7079 22.5209 88.0528 28.2402 88.0528H202.415C208.134 88.0528 212.782 92.7079 212.782 98.4369V278.396ZM123.569 87.7477C123.355 87.7355 123.148 87.7172 122.935 87.705C122.259 87.6562 121.571 87.6135 120.883 87.5647C120.535 87.5403 120.194 87.522 119.853 87.4975C119.817 87.4975 119.786 87.4854 119.75 87.4731C119.731 87.4609 119.713 87.4548 119.695 87.4365C119.658 87.4182 119.616 87.3816 119.579 87.3389C119.543 87.3023 119.506 87.2535 119.469 87.2047C119.439 87.162 119.402 87.1071 119.372 87.0583C119.329 86.9851 119.293 86.9118 119.25 86.8325H116.771C116.735 86.8996 116.698 86.9546 116.668 87.0033L116.655 87.0156C116.625 87.0583 116.595 87.101 116.564 87.1315C116.491 87.2108 116.424 87.2535 116.357 87.2474C116.229 87.2352 116.101 87.223 115.979 87.1925C115.931 87.1864 115.888 87.1742 115.839 87.162C115.797 87.1498 115.748 87.1376 115.705 87.1254C115.608 87.0949 115.51 87.0583 115.419 87.0217C115.395 87.0094 115.37 87.0033 115.346 86.9912C115.242 86.9423 115.139 86.8935 115.035 86.8325H107.349C107.05 87.2291 106.776 87.6379 106.514 88.0527H127.668C126.431 87.9429 125.03 87.8453 123.569 87.7477ZM137.072 87.5952C137.072 87.4548 137.066 87.3206 137.06 87.1803C137.06 87.0644 137.054 86.9485 137.048 86.8325H130.269C130.11 86.9972 129.952 87.1498 129.787 87.284C129.714 87.3511 129.635 87.4122 129.562 87.467C129.507 87.5159 129.452 87.5525 129.398 87.5891C129.245 87.6928 129.099 87.7843 128.947 87.8575C128.892 87.888 128.837 87.9124 128.782 87.9307C128.648 87.9917 128.514 88.0283 128.38 88.0528H137.078C137.078 87.9002 137.078 87.7477 137.072 87.5952ZM123.569 87.7477C123.355 87.7355 123.148 87.7172 122.935 87.705C122.259 87.6562 121.571 87.6135 120.883 87.5647C120.535 87.5403 120.194 87.522 119.853 87.4975C119.817 87.4975 119.786 87.4854 119.75 87.4731C119.731 87.4609 119.713 87.4548 119.695 87.4365C119.658 87.4182 119.616 87.3816 119.579 87.3389C119.543 87.3023 119.506 87.2535 119.469 87.2047C119.439 87.162 119.402 87.1071 119.372 87.0583C119.329 86.9851 119.293 86.9118 119.25 86.8325H116.771C116.735 86.8996 116.698 86.9546 116.668 87.0033L116.655 87.0156C116.625 87.0583 116.595 87.101 116.564 87.1315C116.491 87.2108 116.424 87.2535 116.357 87.2474C116.229 87.2352 116.101 87.223 115.979 87.1925C115.931 87.1864 115.888 87.1742 115.839 87.162C115.797 87.1498 115.748 87.1376 115.705 87.1254C115.608 87.0949 115.51 87.0583 115.419 87.0217C115.395 87.0094 115.37 87.0033 115.346 86.9912C115.242 86.9423 115.139 86.8935 115.035 86.8325H107.349C107.05 87.2291 106.776 87.6379 106.514 88.0527H127.668C126.431 87.9429 125.03 87.8453 123.569 87.7477ZM137.072 87.5952C137.072 87.4548 137.066 87.3206 137.06 87.1803C137.06 87.0644 137.054 86.9485 137.048 86.8325H130.269C130.11 86.9972 129.952 87.1498 129.787 87.284C129.714 87.3511 129.635 87.4122 129.562 87.467C129.507 87.5159 129.452 87.5525 129.398 87.5891C129.245 87.6928 129.099 87.7843 128.947 87.8575C128.892 87.888 128.837 87.9124 128.782 87.9307C128.648 87.9917 128.514 88.0283 128.38 88.0528H137.078C137.078 87.9002 137.078 87.7477 137.072 87.5952Z" fill="#3F3D56"/>
<path d="M162.617 88.1523C157.757 89.938 155.325 71.5982 154.112 71.1885C152.984 70.8076 151.591 89.4121 150.466 89.0452C123.261 80.1655 111.945 58.5984 88.4826 64.6853C81.9265 43.8984 83.809 21.3341 90.9127 14.6865C101.987 -0.0629722 123.426 0.445453 138.191 2.98712C149.738 4.97469 157.513 16.2572 154.77 27.6664C154.585 28.435 153.847 29.1598 154.087 29.8647C155.11 32.877 163.506 74.143 162.617 88.1523Z" fill="#24285B"/>
<path d="M124.935 56.7397C139.027 56.7397 150.451 45.2964 150.451 31.1804C150.451 17.0644 139.027 5.62109 124.935 5.62109C110.842 5.62109 99.4182 17.0644 99.4182 31.1804C99.4182 45.2964 110.842 56.7397 124.935 56.7397Z" fill="#FFB6B6"/>
<path d="M148.155 178.45H76.7241C82.7113 165.068 86.3921 152.323 80.638 142.185L148.155 138.264C144.781 151.95 144.368 165.381 148.155 178.45Z" fill="#FFB6B6"/>
<path d="M174.007 290H119.622L119.031 288.78L110.358 270.946L109.499 288.78L109.438 290H55.8624C55.838 289.591 55.8076 289.183 55.7832 288.78C52.4819 237.744 64.3531 203.15 71.3149 187.672L71.321 187.666C74.0558 181.577 76.0415 178.447 76.0415 178.447L76.7297 178.441H76.7358L90.6413 178.197H90.6474L102.963 177.989L112.27 177.837L116.004 177.77H116.01L118.349 177.733L129.976 177.532L140.361 177.355L147.816 177.233H148.024L149.132 182.022V182.028L149.175 182.242V182.248L149.364 183.035L149.37 183.059L149.747 184.713V184.725L149.772 184.817V184.823L149.863 185.219L149.869 185.238L150.746 189.039L152.165 195.219L154.035 203.303L156.392 213.565L157.586 218.733L159.225 225.853L173.721 288.78L174.007 290Z" fill="#24285B"/>
<path d="M137.842 59.2733L109.415 58.2798L98.1788 73.3731L92.2663 74.6592C83.4033 76.587 77.3235 84.775 78.0297 93.8322L77.547 161.411L75.9365 171.845L150.086 149.082L163.999 79.9215L144.175 72.7877L137.842 59.2733Z" fill="#EAAA2A"/>
<path d="M143.586 224.037C144.401 221.162 145.796 218.709 147.458 216.96L153.496 189.08L166.656 192.346L159.114 220.276C159.61 222.639 159.511 225.46 158.696 228.335C156.834 234.903 151.942 239.265 147.769 238.078C143.597 236.891 141.724 230.605 143.586 224.037Z" fill="#FFB6B6"/>
<path d="M145.406 73.4854C145.406 73.4854 169.704 72.2457 171.473 88.3854C173.243 104.525 178.903 142.893 178.903 142.893L165.783 204.938L147.073 202.334L155.341 123.358L145.406 73.4854Z" fill="#EAAA2A"/>
<path d="M161.303 58.1966C159.37 67.2979 153.564 73.0872 144.483 75.0447C136.331 76.8019 129.83 67.4993 127.663 58.1966C125.552 49.1351 135.378 43.1931 144.483 41.3485C153.667 39.488 162.335 53.3386 161.303 58.1966Z" fill="#3F3D56"/>
<path d="M133.338 53.9589C133.908 53.9589 134.37 53.4961 134.37 52.9252C134.37 52.3544 133.908 51.8916 133.338 51.8916C132.769 51.8916 132.307 52.3544 132.307 52.9252C132.307 53.4961 132.769 53.9589 133.338 53.9589Z" fill="white"/>
<path d="M157.175 53.9589C157.745 53.9589 158.207 53.4961 158.207 52.9252C158.207 52.3544 157.745 51.8916 157.175 51.8916C156.605 51.8916 156.143 52.3544 156.143 52.9252C156.143 53.4961 156.605 53.9589 157.175 53.9589Z" fill="white"/>
<path d="M142.213 55.8192C142.783 55.8192 143.245 55.3564 143.245 54.7856C143.245 54.2147 142.783 53.752 142.213 53.752C141.643 53.752 141.181 54.2147 141.181 54.7856C141.181 55.3564 141.643 55.8192 142.213 55.8192Z" fill="white"/>
<path d="M149.849 49.9276C150.419 49.9276 150.881 49.4648 150.881 48.894C150.881 48.3231 150.419 47.8604 149.849 47.8604C149.279 47.8604 148.817 48.3231 148.817 48.894C148.817 49.4648 149.279 49.9276 149.849 49.9276Z" fill="white"/>
<path d="M140.871 45.9999C141.903 46.31 140.409 47.0336 139.839 47.0336C139.269 47.0336 138.807 46.5708 138.807 45.9999C138.807 45.4291 139.269 44.9663 139.839 44.9663C140.409 44.9663 139.839 45.6898 140.871 45.9999Z" fill="white"/>
<path d="M147.372 59.747C148.404 60.0571 146.91 60.7806 146.34 60.7806C145.77 60.7806 145.308 60.3179 145.308 59.747C145.308 59.1761 145.77 58.7134 146.34 58.7134C146.91 58.7134 146.34 59.4369 147.372 59.747Z" fill="white"/>
<path d="M146.959 45.7929C147.991 46.103 146.497 46.8265 145.928 46.8265C145.358 46.8265 144.896 46.3638 144.896 45.7929C144.896 45.222 145.358 44.7593 145.928 44.7593C146.497 44.7593 145.928 45.4828 146.959 45.7929Z" fill="white"/>
<path d="M148.92 68.3261C149.952 68.6362 148.458 69.3597 147.888 69.3597C147.318 69.3597 146.856 68.897 146.856 68.3261C146.856 67.7553 147.318 67.2925 147.888 67.2925C148.458 67.2925 147.888 68.016 148.92 68.3261Z" fill="white"/>
<path d="M136.228 65.4321C137.26 65.7422 135.766 66.4657 135.196 66.4657C134.626 66.4657 134.164 66.0029 134.164 65.4321C134.164 64.8612 134.626 64.3984 135.196 64.3984C135.766 64.3984 135.196 65.122 136.228 65.4321Z" fill="#EAAA2A"/>
<path d="M154.699 59.5405C155.731 59.8506 154.237 60.5741 153.667 60.5741C153.097 60.5741 152.635 60.1113 152.635 59.5405C152.635 58.9696 153.097 58.5068 153.667 58.5068C154.237 58.5068 153.667 59.2304 154.699 59.5405Z" fill="white"/>
<path d="M134.99 59.5405C136.021 59.8506 134.528 60.5741 133.958 60.5741C133.388 60.5741 132.926 60.1113 132.926 59.5405C132.926 58.9696 133.388 58.5068 133.958 58.5068C134.528 58.5068 133.958 59.2304 134.99 59.5405Z" fill="#EAAA2A"/>
<path d="M142.006 71.9438C143.038 72.2539 141.544 72.9774 140.974 72.9774C140.405 72.9774 139.943 72.5146 139.943 71.9438C139.943 71.3729 140.405 70.9102 140.974 70.9102C141.544 70.9102 140.974 71.6337 142.006 71.9438Z" fill="white"/>
<path d="M135.92 74.5559C134.022 76.862 131.761 78.5475 129.538 79.4822L112.843 102.595L102.096 94.3154L120.189 71.7614C120.681 69.3976 121.901 66.8533 123.799 64.5472C128.135 59.2789 134.363 57.2487 137.71 60.0126C141.057 62.7764 140.255 69.2877 135.92 74.5559Z" fill="#FFB6B6"/>
<path d="M110.379 90.831C113.141 77.1726 104.152 57.4031 103.955 47.175C103.779 38.0747 105.954 38.7758 113.091 33.1424L116.745 23.9907C119.491 22.9476 122.141 26.2442 123.487 28.3691C124.174 29.4541 125.726 29.4693 126.445 28.405C126.793 27.8885 127.13 27.5123 127.365 27.5289C128.345 27.598 129.052 31.4728 130.054 31.5401C134.266 31.823 143.809 31.6198 147.2 31.9222C150.895 32.2518 150.056 23.166 150.451 23.8776C153.532 29.4329 151.873 22.1604 147.892 19.1124L153.816 19.72C157.353 31.0232 160.771 42.2461 157.554 49.0054L151.657 32.3973C151.657 15.5925 143.16 -4.11595 118.859 0.752492C102.32 -0.904257 87.3161 10.4671 84.3615 26.8513C82.9245 34.8201 80.6908 42.8527 79.1758 49.8506C77.8258 56.0864 79.7214 64.5546 86.0525 65.2592L90.355 75.2402C90.355 81.0949 98.2346 85.9824 103.849 85.1653C106.733 84.7455 110.085 89.8511 110.455 91.1032L110.379 90.831Z" fill="#24285B"/>
<path d="M179.386 160.93C178.874 158.771 177.771 156.885 176.255 155.439L176.249 155.433C174.208 153.463 171.413 152.285 168.367 152.285H117.289C109.212 152.285 102.616 158.551 102.275 166.562C102.184 168.539 102.22 170.503 102.354 172.462C102.47 174.322 102.689 176.165 102.963 177.989C102.988 178.142 103.006 178.294 103.036 178.447V178.453C104.328 186.519 106.989 194.237 109.651 201.112C114.688 214.126 127.43 222.875 141.372 222.875C142.256 222.875 143.126 222.839 143.991 222.772H143.997C148.834 222.405 153.451 220.996 157.586 218.733C158.384 218.305 159.152 217.848 159.901 217.348C159.901 217.348 159.907 217.348 159.907 217.341C165.45 213.73 169.939 208.501 172.679 202.131C177.912 189.966 182.809 175.549 179.386 160.93Z" fill="white"/>
<path d="M147.937 196.947C146.004 206.048 140.199 211.837 131.117 213.795C122.965 215.552 116.464 206.249 114.297 196.947C112.187 187.885 122.012 181.943 131.117 180.099C140.301 178.238 148.969 192.089 147.937 196.947Z" fill="#3F3D56"/>
<path d="M119.973 192.709C120.543 192.709 121.005 192.246 121.005 191.675C121.005 191.104 120.543 190.642 119.973 190.642C119.403 190.642 118.941 191.104 118.941 191.675C118.941 192.246 119.403 192.709 119.973 192.709Z" fill="#EAAA2A"/>
<path d="M143.809 192.709C144.379 192.709 144.841 192.246 144.841 191.675C144.841 191.104 144.379 190.642 143.809 190.642C143.24 190.642 142.778 191.104 142.778 191.675C142.778 192.246 143.24 192.709 143.809 192.709Z" fill="#EAAA2A"/>
<path d="M128.847 194.569C129.417 194.569 129.879 194.106 129.879 193.536C129.879 192.965 129.417 192.502 128.847 192.502C128.277 192.502 127.815 192.965 127.815 193.536C127.815 194.106 128.277 194.569 128.847 194.569Z" fill="#EAAA2A"/>
<path d="M136.483 188.678C137.053 188.678 137.515 188.215 137.515 187.644C137.515 187.073 137.053 186.61 136.483 186.61C135.913 186.61 135.451 187.073 135.451 187.644C135.451 188.215 135.913 188.678 136.483 188.678Z" fill="#EAAA2A"/>
<path d="M127.506 184.75C128.537 185.06 127.044 185.784 126.474 185.784C125.904 185.784 125.442 185.321 125.442 184.75C125.442 184.179 125.904 183.716 126.474 183.716C127.044 183.716 126.474 184.44 127.506 184.75Z" fill="#EAAA2A"/>
<path d="M134.007 198.497C135.038 198.807 133.545 199.531 132.975 199.531C132.405 199.531 131.943 199.068 131.943 198.497C131.943 197.926 132.405 197.463 132.975 197.463C133.545 197.463 132.975 198.187 134.007 198.497Z" fill="#EAAA2A"/>
<path d="M133.594 184.543C134.626 184.853 133.132 185.577 132.562 185.577C131.992 185.577 131.53 185.114 131.53 184.543C131.53 183.972 131.992 183.509 132.562 183.509C133.132 183.509 132.562 184.233 133.594 184.543Z" fill="#EAAA2A"/>
<path d="M135.554 207.076C136.586 207.386 135.092 208.11 134.522 208.11C133.953 208.11 133.491 207.647 133.491 207.076C133.491 206.505 133.953 206.042 134.522 206.042C135.092 206.042 134.522 206.766 135.554 207.076Z" fill="#EAAA2A"/>
<path d="M122.862 204.182C123.894 204.492 122.4 205.216 121.83 205.216C121.26 205.216 120.798 204.753 120.798 204.182C120.798 203.611 121.26 203.148 121.83 203.148C122.4 203.148 121.83 203.872 122.862 204.182Z" fill="#EAAA2A"/>
<path d="M141.333 198.29C142.365 198.601 140.871 199.324 140.301 199.324C139.731 199.324 139.269 198.861 139.269 198.29C139.269 197.72 139.731 197.257 140.301 197.257C140.871 197.257 140.301 197.98 141.333 198.29Z" fill="#EAAA2A"/>
<path d="M121.624 198.29C122.656 198.601 121.162 199.324 120.592 199.324C120.022 199.324 119.56 198.861 119.56 198.29C119.56 197.72 120.022 197.257 120.592 197.257C121.162 197.257 120.592 197.98 121.624 198.29Z" fill="#EAAA2A"/>
<path d="M128.641 210.694C129.673 211.004 128.179 211.727 127.609 211.727C127.039 211.727 126.577 211.265 126.577 210.694C126.577 210.123 127.039 209.66 127.609 209.66C128.179 209.66 127.609 210.384 128.641 210.694Z" fill="#EAAA2A"/>
<path d="M162.518 173.822C160.585 182.923 154.779 188.712 145.698 190.67C137.546 192.427 131.045 183.124 128.878 173.822C126.767 164.76 136.593 158.818 145.698 156.974C154.882 155.113 163.55 168.964 162.518 173.822Z" fill="#3F3D56"/>
<path d="M134.554 169.584C135.123 169.584 135.585 169.121 135.585 168.55C135.585 167.979 135.123 167.517 134.554 167.517C133.984 167.517 133.522 167.979 133.522 168.55C133.522 169.121 133.984 169.584 134.554 169.584Z" fill="#EAAA2A"/>
<path d="M158.39 169.584C158.96 169.584 159.422 169.121 159.422 168.55C159.422 167.979 158.96 167.517 158.39 167.517C157.82 167.517 157.358 167.979 157.358 168.55C157.358 169.121 157.82 169.584 158.39 169.584Z" fill="#EAAA2A"/>
<path d="M143.428 171.444C143.998 171.444 144.46 170.981 144.46 170.411C144.46 169.84 143.998 169.377 143.428 169.377C142.858 169.377 142.396 169.84 142.396 170.411C142.396 170.981 142.858 171.444 143.428 171.444Z" fill="#EAAA2A"/>
<path d="M151.064 165.553C151.634 165.553 152.096 165.09 152.096 164.519C152.096 163.948 151.634 163.485 151.064 163.485C150.494 163.485 150.032 163.948 150.032 164.519C150.032 165.09 150.494 165.553 151.064 165.553Z" fill="#EAAA2A"/>
<path d="M142.086 161.625C143.118 161.935 141.624 162.659 141.054 162.659C140.485 162.659 140.023 162.196 140.023 161.625C140.023 161.054 140.485 160.591 141.054 160.591C141.624 160.591 141.054 161.315 142.086 161.625Z" fill="#EAAA2A"/>
<path d="M148.587 175.372C149.619 175.682 148.125 176.406 147.555 176.406C146.985 176.406 146.523 175.943 146.523 175.372C146.523 174.801 146.985 174.338 147.555 174.338C148.125 174.338 147.555 175.062 148.587 175.372Z" fill="#EAAA2A"/>
<path d="M148.175 161.418C149.206 161.728 147.713 162.452 147.143 162.452C146.573 162.452 146.111 161.989 146.111 161.418C146.111 160.847 146.573 160.384 147.143 160.384C147.713 160.384 147.143 161.108 148.175 161.418Z" fill="#EAAA2A"/>
<path d="M150.135 183.951C151.167 184.261 149.673 184.985 149.103 184.985C148.533 184.985 148.071 184.522 148.071 183.951C148.071 183.38 148.533 182.917 149.103 182.917C149.673 182.917 149.103 183.641 150.135 183.951Z" fill="#EAAA2A"/>
<path d="M137.443 181.057C138.475 181.367 136.981 182.091 136.411 182.091C135.841 182.091 135.379 181.628 135.379 181.057C135.379 180.486 135.841 180.023 136.411 180.023C136.981 180.023 136.411 180.747 137.443 181.057Z" fill="#EAAA2A"/>
<path d="M155.914 175.165C156.946 175.476 155.452 176.199 154.882 176.199C154.312 176.199 153.85 175.736 153.85 175.165C153.85 174.595 154.312 174.132 154.882 174.132C155.452 174.132 154.882 174.855 155.914 175.165Z" fill="#EAAA2A"/>
<path d="M136.205 175.165C137.236 175.476 135.743 176.199 135.173 176.199C134.603 176.199 134.141 175.736 134.141 175.165C134.141 174.595 134.603 174.132 135.173 174.132C135.743 174.132 135.173 174.855 136.205 175.165Z" fill="#EAAA2A"/>
<path d="M143.221 187.569C144.253 187.879 142.759 188.602 142.19 188.602C141.62 188.602 141.158 188.14 141.158 187.569C141.158 186.998 141.62 186.535 142.19 186.535C142.759 186.535 142.19 187.259 143.221 187.569Z" fill="#EAAA2A"/>
<path d="M143.077 170.17C141.144 179.271 135.338 185.061 126.257 187.018C118.105 188.776 111.604 179.473 109.437 170.17C107.326 161.109 117.152 155.167 126.257 153.322C135.441 151.462 144.109 165.312 143.077 170.17Z" fill="#3F3D56"/>
<path d="M115.113 165.932C115.682 165.932 116.144 165.47 116.144 164.899C116.144 164.328 115.682 163.865 115.113 163.865C114.543 163.865 114.081 164.328 114.081 164.899C114.081 165.47 114.543 165.932 115.113 165.932Z" fill="#EAAA2A"/>
<path d="M138.949 165.932C139.519 165.932 139.981 165.47 139.981 164.899C139.981 164.328 139.519 163.865 138.949 163.865C138.379 163.865 137.917 164.328 137.917 164.899C137.917 165.47 138.379 165.932 138.949 165.932Z" fill="#EAAA2A"/>
<path d="M123.987 167.793C124.557 167.793 125.019 167.33 125.019 166.759C125.019 166.188 124.557 165.726 123.987 165.726C123.417 165.726 122.955 166.188 122.955 166.759C122.955 167.33 123.417 167.793 123.987 167.793Z" fill="#EAAA2A"/>
<path d="M131.623 161.901C132.193 161.901 132.655 161.438 132.655 160.868C132.655 160.297 132.193 159.834 131.623 159.834C131.053 159.834 130.591 160.297 130.591 160.868C130.591 161.438 131.053 161.901 131.623 161.901Z" fill="#EAAA2A"/>
<path d="M122.645 157.974C123.677 158.284 122.183 159.007 121.613 159.007C121.044 159.007 120.582 158.544 120.582 157.974C120.582 157.403 121.044 156.94 121.613 156.94C122.183 156.94 121.613 157.663 122.645 157.974Z" fill="#EAAA2A"/>
<path d="M129.146 171.721C130.178 172.031 128.684 172.754 128.114 172.754C127.544 172.754 127.082 172.291 127.082 171.721C127.082 171.15 127.544 170.687 128.114 170.687C128.684 170.687 128.114 171.411 129.146 171.721Z" fill="#EAAA2A"/>
<path d="M128.733 157.767C129.765 158.077 128.271 158.8 127.702 158.8C127.132 158.8 126.67 158.337 126.67 157.767C126.67 157.196 127.132 156.733 127.702 156.733C128.271 156.733 127.702 157.456 128.733 157.767Z" fill="#EAAA2A"/>
<path d="M130.694 180.3C131.726 180.61 130.232 181.333 129.662 181.333C129.092 181.333 128.63 180.871 128.63 180.3C128.63 179.729 129.092 179.266 129.662 179.266C130.232 179.266 129.662 179.99 130.694 180.3Z" fill="#EAAA2A"/>
<path d="M118.002 177.406C119.034 177.716 117.54 178.439 116.97 178.439C116.4 178.439 115.938 177.977 115.938 177.406C115.938 176.835 116.4 176.372 116.97 176.372C117.54 176.372 116.97 177.096 118.002 177.406Z" fill="#EAAA2A"/>
<path d="M136.473 171.514C137.505 171.824 136.011 172.548 135.441 172.548C134.871 172.548 134.409 172.085 134.409 171.514C134.409 170.943 134.871 170.48 135.441 170.48C136.011 170.48 135.441 171.204 136.473 171.514Z" fill="#EAAA2A"/>
<path d="M116.764 171.514C117.795 171.824 116.302 172.548 115.732 172.548C115.162 172.548 114.7 172.085 114.7 171.514C114.7 170.943 115.162 170.48 115.732 170.48C116.302 170.48 115.732 171.204 116.764 171.514Z" fill="#EAAA2A"/>
<path d="M123.78 183.917C124.812 184.228 123.318 184.951 122.749 184.951C122.179 184.951 121.717 184.488 121.717 183.917C121.717 183.347 122.179 182.884 122.749 182.884C123.318 182.884 122.749 183.607 123.78 183.917Z" fill="#EAAA2A"/>
<path d="M157.658 147.045C155.724 156.146 149.919 161.936 140.838 163.893C132.686 165.651 126.185 156.348 124.018 147.045C121.907 137.984 131.733 132.042 140.838 130.197C150.022 128.337 158.689 142.187 157.658 147.045Z" fill="#3F3D56"/>
<path d="M129.693 142.807C130.263 142.807 130.725 142.345 130.725 141.774C130.725 141.203 130.263 140.74 129.693 140.74C129.123 140.74 128.661 141.203 128.661 141.774C128.661 142.345 129.123 142.807 129.693 142.807Z" fill="white"/>
<path d="M153.53 142.807C154.1 142.807 154.562 142.345 154.562 141.774C154.562 141.203 154.1 140.74 153.53 140.74C152.96 140.74 152.498 141.203 152.498 141.774C152.498 142.345 152.96 142.807 153.53 142.807Z" fill="white"/>
<path d="M138.568 144.668C139.137 144.668 139.599 144.205 139.599 143.634C139.599 143.063 139.137 142.601 138.568 142.601C137.998 142.601 137.536 143.063 137.536 143.634C137.536 144.205 137.998 144.668 138.568 144.668Z" fill="white"/>
<path d="M146.204 138.776C146.773 138.776 147.235 138.313 147.235 137.743C147.235 137.172 146.773 136.709 146.204 136.709C145.634 136.709 145.172 137.172 145.172 137.743C145.172 138.313 145.634 138.776 146.204 138.776Z" fill="white"/>
<path d="M137.226 134.849C138.258 135.159 136.764 135.882 136.194 135.882C135.624 135.882 135.162 135.419 135.162 134.849C135.162 134.278 135.624 133.815 136.194 133.815C136.764 133.815 136.194 134.538 137.226 134.849Z" fill="white"/>
<path d="M143.727 148.596C144.759 148.906 143.265 149.629 142.695 149.629C142.125 149.629 141.663 149.166 141.663 148.596C141.663 148.025 142.125 147.562 142.695 147.562C143.265 147.562 142.695 148.286 143.727 148.596Z" fill="white"/>
<path d="M143.314 134.642C144.346 134.952 142.852 135.675 142.282 135.675C141.712 135.675 141.25 135.212 141.25 134.642C141.25 134.071 141.712 133.608 142.282 133.608C142.852 133.608 142.282 134.331 143.314 134.642Z" fill="white"/>
<path d="M145.275 157.175C146.307 157.485 144.813 158.208 144.243 158.208C143.673 158.208 143.211 157.746 143.211 157.175C143.211 156.604 143.673 156.141 144.243 156.141C144.813 156.141 144.243 156.865 145.275 157.175Z" fill="#EAAA2A"/>
<path d="M132.583 154.281C133.614 154.591 132.121 155.314 131.551 155.314C130.981 155.314 130.519 154.852 130.519 154.281C130.519 153.71 130.981 153.247 131.551 153.247C132.121 153.247 131.551 153.971 132.583 154.281Z" fill="#EAAA2A"/>
<path d="M151.053 148.389C152.085 148.699 150.591 149.423 150.022 149.423C149.452 149.423 148.99 148.96 148.99 148.389C148.99 147.818 149.452 147.355 150.022 147.355C150.591 147.355 150.022 148.079 151.053 148.389Z" fill="white"/>
<path d="M131.344 148.389C132.376 148.699 130.882 149.423 130.312 149.423C129.743 149.423 129.281 148.96 129.281 148.389C129.281 147.818 129.743 147.355 130.312 147.355C130.882 147.355 130.312 148.079 131.344 148.389Z" fill="white"/>
<path d="M138.361 160.792C139.393 161.103 137.899 161.826 137.329 161.826C136.759 161.826 136.297 161.363 136.297 160.792C136.297 160.222 136.759 159.759 137.329 159.759C137.899 159.759 137.329 160.482 138.361 160.792Z" fill="#EAAA2A"/>
<path d="M172.238 196.947C170.305 206.048 164.5 211.837 155.418 213.795C147.267 215.552 140.766 206.249 138.599 196.947C136.488 187.885 146.313 181.943 155.418 180.099C164.602 178.238 173.27 192.089 172.238 196.947Z" fill="#3F3D56"/>
<path d="M144.274 192.709C144.844 192.709 145.306 192.246 145.306 191.675C145.306 191.104 144.844 190.642 144.274 190.642C143.704 190.642 143.242 191.104 143.242 191.675C143.242 192.246 143.704 192.709 144.274 192.709Z" fill="#EAAA2A"/>
<path d="M168.111 192.709C168.681 192.709 169.143 192.246 169.143 191.675C169.143 191.104 168.681 190.642 168.111 190.642C167.541 190.642 167.079 191.104 167.079 191.675C167.079 192.246 167.541 192.709 168.111 192.709Z" fill="#EAAA2A"/>
<path d="M153.148 194.569C153.718 194.569 154.18 194.106 154.18 193.536C154.18 192.965 153.718 192.502 153.148 192.502C152.578 192.502 152.116 192.965 152.116 193.536C152.116 194.106 152.578 194.569 153.148 194.569Z" fill="#EAAA2A"/>
<path d="M160.784 188.678C161.354 188.678 161.816 188.215 161.816 187.644C161.816 187.073 161.354 186.61 160.784 186.61C160.214 186.61 159.752 187.073 159.752 187.644C159.752 188.215 160.214 188.678 160.784 188.678Z" fill="#EAAA2A"/>
<path d="M151.807 184.75C152.839 185.06 151.345 185.784 150.775 185.784C150.205 185.784 149.743 185.321 149.743 184.75C149.743 184.179 150.205 183.716 150.775 183.716C151.345 183.716 150.775 184.44 151.807 184.75Z" fill="#EAAA2A"/>
<path d="M158.308 198.497C159.34 198.807 157.846 199.531 157.276 199.531C156.706 199.531 156.244 199.068 156.244 198.497C156.244 197.926 156.706 197.463 157.276 197.463C157.846 197.463 157.276 198.187 158.308 198.497Z" fill="#EAAA2A"/>
<path d="M157.895 184.543C158.927 184.853 157.433 185.577 156.863 185.577C156.293 185.577 155.831 185.114 155.831 184.543C155.831 183.972 156.293 183.509 156.863 183.509C157.433 183.509 156.863 184.233 157.895 184.543Z" fill="#EAAA2A"/>
<path d="M159.856 207.076C160.888 207.386 159.394 208.11 158.824 208.11C158.254 208.11 157.792 207.647 157.792 207.076C157.792 206.505 158.254 206.042 158.824 206.042C159.394 206.042 158.824 206.766 159.856 207.076Z" fill="#EAAA2A"/>
<path d="M147.163 204.182C148.195 204.492 146.701 205.216 146.131 205.216C145.562 205.216 145.1 204.753 145.1 204.182C145.1 203.611 145.562 203.148 146.131 203.148C146.701 203.148 146.131 203.872 147.163 204.182Z" fill="#EAAA2A"/>
<path d="M165.634 198.29C166.666 198.601 165.172 199.324 164.602 199.324C164.032 199.324 163.57 198.861 163.57 198.29C163.57 197.72 164.032 197.257 164.602 197.257C165.172 197.257 164.602 197.98 165.634 198.29Z" fill="#EAAA2A"/>
<path d="M145.925 198.29C146.957 198.601 145.463 199.324 144.893 199.324C144.323 199.324 143.861 198.861 143.861 198.29C143.861 197.72 144.323 197.257 144.893 197.257C145.463 197.257 144.893 197.98 145.925 198.29Z" fill="#EAAA2A"/>
<path d="M152.942 210.694C153.974 211.004 152.48 211.727 151.91 211.727C151.34 211.727 150.878 211.265 150.878 210.694C150.878 210.123 151.34 209.66 151.91 209.66C152.48 209.66 151.91 210.384 152.942 210.694Z" fill="#EAAA2A"/>
<path opacity="0.7" d="M179.386 160.93C178.874 158.771 177.771 156.885 176.255 155.439L176.249 155.433C174.208 153.463 171.413 152.285 168.367 152.285C149.364 162.406 132.588 161.127 117.289 152.285C109.212 152.285 102.616 158.551 102.275 166.562C102.184 168.539 102.22 170.503 102.354 172.462C102.47 174.322 102.689 176.165 102.963 177.989C102.988 178.142 103.006 178.294 103.036 178.447V178.453C104.328 186.519 106.989 194.237 109.651 201.112C114.688 214.126 127.43 222.875 141.372 222.875C142.256 222.875 143.126 222.839 143.991 222.772H143.997C148.834 222.405 153.451 220.996 157.586 218.733C158.384 218.305 159.152 217.848 159.901 217.348C159.901 217.348 159.907 217.348 159.907 217.341C165.45 213.73 169.939 208.501 172.679 202.131C177.912 189.966 182.809 175.549 179.386 160.93Z" fill="#FFD200"/>
<path d="M90.9128 77.4305C90.9128 77.4305 73.2321 67.6937 67.4917 77.4305C62.5938 85.7381 58.3368 127.714 57.1925 139.859C56.9917 141.99 57.5054 144.122 58.653 145.928C62.0516 151.278 69.5953 151.932 73.8616 147.248L128.58 87.1674L111.569 78.6476L82.4073 109.075L90.9128 77.4305Z" fill="#EAAA2A"/>
</g>
<defs>
<clipPath id="clip0_107_1399">
<rect width="214" height="290" fill="white"/>
</clipPath>
</defs>
</svg>
