<svg width="74" height="72" viewBox="0 0 74 72" fill="none" xmlns="http://www.w3.org/2000/svg">
<path d="M47.9389 27.9412C47.7737 26.2109 47.4582 24.4956 47.0877 22.7955C46.6671 21.1055 46.2014 19.4154 45.5805 17.7807C44.3638 14.4961 42.6913 11.3776 40.6785 8.49039C38.6205 5.63338 36.197 3.04296 33.4931 0.789553L32.5518 0.00488281L31.8007 0.99075C28.4358 5.39194 25.6368 10.2861 23.8242 15.5776C23.5638 16.2264 23.3936 16.9055 23.1983 17.5745C23.013 18.2485 22.7977 18.9124 22.6375 19.5915C22.3671 20.9646 22.0066 22.3177 21.8714 23.721C21.4608 26.4925 21.4608 29.3244 21.7111 32.121L21.9715 34.2135L22.4322 36.2758C22.5574 36.9699 22.8177 37.6288 23.028 38.3028C23.2484 38.9718 23.4536 39.6458 23.7641 40.2796C24.0595 40.9184 24.3149 41.5773 24.6454 42.201L25.7069 44.0269C26.0774 44.6204 26.5381 45.1637 26.9487 45.732C27.3543 46.3054 27.8199 46.8336 28.3056 47.3416C29.1018 48.1766 29.963 48.9411 30.8693 49.6353C29.262 48.8154 27.6046 48.081 25.8922 47.4724C23.2484 46.5368 20.4844 45.893 17.6603 45.5862C14.8362 45.2844 11.9571 45.3749 9.12802 45.8628L8.06649 46.0539L7.02499 46.3256C6.32899 46.5117 5.62798 46.6827 4.95201 46.9241C3.59005 47.3869 2.25813 47.9553 0.976282 48.6092L0.00488281 49.1071L0.445517 50.1181C1.41191 52.3263 2.48345 54.4942 3.80536 56.5162C5.06717 58.5785 6.58936 60.4748 8.22672 62.2554C9.09297 63.1054 9.91415 63.9957 10.8605 64.7603C11.3262 65.1476 11.7618 65.5701 12.2575 65.9222L13.7246 67.0036C14.2053 67.3708 14.7461 67.6575 15.2619 67.9845C15.7776 68.3064 16.2933 68.6233 16.8491 68.8798C17.3949 69.1514 17.9307 69.4381 18.4815 69.6896L20.1739 70.3737C22.4572 71.2087 24.8557 71.762 27.2942 71.9028C29.7277 72.0135 32.1812 71.772 34.5046 71.088C39.1713 69.7148 43.152 66.7421 46.1413 63.1406C42.6713 66.2844 38.5804 68.7339 34.144 69.6896C33.0374 69.9109 31.9208 70.087 30.7992 70.0971C29.6826 70.1976 28.556 70.0971 27.4444 70.0216C25.2112 69.7751 23.0481 69.1363 20.9651 68.3265C16.8141 66.6063 13.1238 63.8499 10.0243 60.5603C7.20525 57.4971 4.8769 53.9761 3.0693 50.1886C3.92553 49.761 4.79678 49.3586 5.69307 49.0216C6.31397 48.7751 6.95489 48.5991 7.59581 48.408L8.5572 48.1213L9.5336 47.905C12.1374 47.3014 14.8412 47.1052 17.5451 47.2058C20.249 47.3014 22.9529 47.739 25.6218 48.3878C27.8049 48.9512 29.963 49.6604 32.0861 50.4954C33.0324 51.1292 34.0189 51.6975 35.0303 52.1955C37.4989 53.4228 40.1427 54.2075 42.8065 54.7004C41.5147 54.288 40.2328 53.8453 39.001 53.2971C37.7592 52.7739 36.5675 52.1553 35.4209 51.4611C33.1226 50.103 31.0596 48.3778 29.3572 46.3759C25.9773 42.3268 24.2398 37.1359 23.8743 31.9098C23.709 29.2942 23.7741 26.6434 24.2348 24.0429C24.375 22.7301 24.7305 21.4525 24.9909 20.1598C25.1461 19.521 25.3564 18.8923 25.5366 18.2535C25.7269 17.6197 25.8922 16.9809 26.1475 16.3673C27.8099 11.785 30.0932 7.41398 32.9573 3.44033C35.1805 5.3165 37.2185 7.41398 38.986 9.73781C40.9989 12.3986 42.7164 15.2959 44.0383 18.3843C44.7293 19.9184 45.2751 21.5129 45.7808 23.1275C46.2264 24.7572 46.6771 26.3919 46.9675 28.0669C47.5834 31.4068 47.8638 34.8271 47.8287 38.2676C48.2594 34.8573 48.3295 31.3766 47.9439 27.9261L47.9389 27.9412Z" fill="#EAAA2A"/>
<path d="M46.0762 59.0612C46.5869 58.4475 47.1177 57.7835 47.6535 57.0643C48.6299 55.7565 49.3058 54.8461 49.8817 53.8904C49.1456 53.654 48.4546 53.2516 47.8487 52.7637C47.1778 54.4487 46.2565 56.4707 44.9746 58.9153C45.3001 58.9505 45.6656 59.0008 46.0762 59.0662V59.0612Z" fill="#EAAA2A"/>
<path d="M49.1655 48.8256C48.9302 49.7309 48.5897 50.8325 48.084 52.1554C48.6999 52.6835 49.4259 53.1111 50.202 53.3374C50.3623 53.0457 50.5175 52.7489 50.6727 52.422C51.2586 51.1796 51.6391 49.8919 52.0146 48.1415C51.3637 47.8799 50.5375 47.6486 49.501 47.5278C49.3308 48.2069 49.2106 48.6646 49.1705 48.8256H49.1655Z" fill="#EAAA2A"/>
<path d="M71.8678 24.0228C70.1854 22.5037 67.5516 23.0973 66.2848 23.384C63.0652 24.1083 61.0272 26.0096 59.0544 27.8506C57.5873 29.2187 56.4306 30.6422 55.7046 31.9751C55.1988 32.9006 54.8033 33.8815 54.5079 34.9025C54.3526 34.8372 54.1924 34.7869 54.0222 34.7567C53.8819 34.7315 53.7468 34.7265 53.6116 34.7265C53.8068 30.939 54.8283 25.7933 58.3884 21.3569C58.9793 20.6226 64.2669 14.2094 68.2476 15.4166C68.6132 15.5272 70.4708 16.166 70.8964 17.7756C71.1268 18.6508 70.8514 19.4707 70.571 20.024C70.4408 19.9385 70.2956 19.8781 70.1354 19.8479C69.5044 19.7373 68.8986 20.1598 68.7884 20.7936C68.6783 21.4273 69.0989 22.036 69.7298 22.1466C70.3607 22.2573 70.9665 21.8348 71.0767 21.201C71.1168 20.9696 71.0867 20.7433 71.0016 20.5421C71.3671 19.9083 71.8178 18.8168 71.5023 17.6147C70.9966 15.6832 68.8535 14.9438 68.4329 14.818C64.1517 13.5203 58.9142 19.7071 57.9077 20.9646C54.2074 25.577 53.1709 30.9239 52.9857 34.817C52.1595 35.0534 51.4935 35.7375 51.3333 36.6479C51.2131 37.332 51.4084 37.9909 51.804 38.4939C51.5987 39.2987 51.2632 40.6266 51.0078 41.6276C51.6387 41.8338 52.3748 42.0451 53.1158 42.1959C53.3011 41.0793 53.4463 40.1236 53.5515 39.3842C54.6881 39.4194 55.7096 38.6247 55.9099 37.4678C56.0651 36.5976 55.7096 35.7576 55.0637 35.2395C55.3491 34.2084 55.7496 33.2125 56.2554 32.2769C56.9514 31.0043 58.068 29.6312 59.485 28.3083C61.3978 26.5227 63.3756 24.6817 66.43 23.9926C67.6868 23.7109 70.0202 23.1828 71.4623 24.4855C71.6025 24.6113 72.8392 25.7732 72.4837 27.0609C72.3736 27.4582 72.1382 27.76 71.8979 27.9864C71.7427 27.8405 71.5424 27.7349 71.3171 27.6946C70.6861 27.584 70.0803 28.0065 69.9701 28.6403C69.86 29.274 70.2806 29.8827 70.9115 29.9933C71.5424 30.104 72.1482 29.6815 72.2584 29.0477C72.2885 28.8716 72.2784 28.7006 72.2334 28.5346C72.5789 28.2379 72.9294 27.8053 73.0896 27.2218C73.5403 25.577 72.0531 24.1737 71.8829 24.0178L71.8678 24.0228Z" fill="#EAAA2A"/>
<path d="M44.6539 59.5088C44.1832 60.3941 43.6675 61.3246 43.0967 62.3155C43.8127 61.6063 44.6689 60.7059 45.5953 59.6245C45.2448 59.5742 44.9293 59.5339 44.6489 59.5088H44.6539Z" fill="#EAAA2A"/>
<path d="M50.7278 42.689C50.3022 44.3539 49.9317 45.8227 49.6562 46.9142C50.6628 47.0349 51.4839 47.2512 52.1498 47.5077C52.3652 46.4363 52.5855 45.1939 52.8509 43.7051C52.9059 43.3982 52.956 43.1015 53.0061 42.8148C52.245 42.6588 51.4939 42.4476 50.848 42.2363C50.8029 42.4124 50.7628 42.5733 50.7328 42.6941L50.7278 42.689Z" fill="#EAAA2A"/>
</svg>
