<svg width="27" height="27" viewBox="0 0 27 27" fill="none" xmlns="http://www.w3.org/2000/svg">
<path d="M21.66 11.9542C21.7687 12.5244 21.8278 13.1206 21.8278 13.7426C21.8278 18.6087 18.5044 22.0687 13.4849 22.0687C12.3434 22.069 11.2131 21.849 10.1584 21.421C9.10371 20.9931 8.14541 20.3658 7.33825 19.5748C6.53109 18.7838 5.89088 17.8448 5.45421 16.8112C5.01753 15.7777 4.79296 14.67 4.7933 13.5514C4.79296 12.4328 5.01753 11.3251 5.45421 10.2916C5.89088 9.2581 6.53109 8.31903 7.33825 7.52807C8.14541 6.7371 9.10371 6.10973 10.1584 5.68182C11.2131 5.25391 12.3434 5.03384 13.4849 5.03418C15.8318 5.03418 17.7928 5.88037 19.2973 7.25434L16.8472 9.65534V9.64928C15.9351 8.7979 14.7776 8.36096 13.4849 8.36096C10.6172 8.36096 8.2862 10.7351 8.2862 13.5462C8.2862 16.3565 10.6172 18.7358 13.4849 18.7358C16.087 18.7358 17.8581 17.2779 18.2219 15.2758H13.4849V11.9542H21.6609H21.66Z" fill="#4D4D4F"/>
</svg>
