<svg width="250" height="75" viewBox="0 0 250 75" fill="none" xmlns="http://www.w3.org/2000/svg">
<path d="M47.9389 27.9412C47.7737 26.2109 47.4582 24.4956 47.0877 22.7955C46.6671 21.1055 46.2014 19.4154 45.5805 17.7807C44.3638 14.4961 42.6913 11.3776 40.6785 8.49039C38.6205 5.63338 36.197 3.04296 33.4931 0.789553L32.5518 0.00488281L31.8007 0.99075C28.4358 5.39194 25.6368 10.2861 23.8242 15.5776C23.5638 16.2264 23.3936 16.9055 23.1983 17.5745C23.013 18.2485 22.7977 18.9124 22.6375 19.5915C22.3671 20.9646 22.0066 22.3177 21.8714 23.721C21.4608 26.4925 21.4608 29.3244 21.7111 32.121L21.9715 34.2135L22.4322 36.2758C22.5574 36.9699 22.8177 37.6288 23.028 38.3028C23.2484 38.9718 23.4536 39.6458 23.7641 40.2796C24.0595 40.9184 24.3149 41.5773 24.6454 42.201L25.7069 44.0269C26.0774 44.6204 26.5381 45.1637 26.9487 45.732C27.3543 46.3054 27.8199 46.8336 28.3056 47.3416C29.1018 48.1766 29.963 48.9411 30.8693 49.6353C29.262 48.8154 27.6046 48.081 25.8922 47.4724C23.2484 46.5368 20.4844 45.893 17.6603 45.5862C14.8362 45.2844 11.9571 45.3749 9.12802 45.8628L8.06649 46.0539L7.02499 46.3256C6.32899 46.5117 5.62798 46.6827 4.95201 46.9241C3.59005 47.3869 2.25813 47.9553 0.976282 48.6092L0.00488281 49.1071L0.445517 50.1181C1.41191 52.3263 2.48345 54.4942 3.80536 56.5162C5.06717 58.5785 6.58936 60.4748 8.22672 62.2554C9.09297 63.1054 9.91415 63.9957 10.8605 64.7603C11.3262 65.1476 11.7618 65.5701 12.2575 65.9222L13.7246 67.0036C14.2053 67.3708 14.7461 67.6575 15.2619 67.9845C15.7776 68.3064 16.2933 68.6233 16.8491 68.8798C17.3949 69.1514 17.9307 69.4381 18.4815 69.6896L20.1739 70.3737C22.4572 71.2087 24.8557 71.762 27.2942 71.9028C29.7277 72.0135 32.1812 71.772 34.5046 71.088C39.1713 69.7148 43.152 66.7421 46.1413 63.1406C42.6713 66.2844 38.5804 68.7339 34.144 69.6896C33.0374 69.9109 31.9208 70.087 30.7992 70.0971C29.6826 70.1976 28.556 70.0971 27.4444 70.0216C25.2112 69.7751 23.0481 69.1363 20.9651 68.3265C16.8141 66.6063 13.1238 63.8499 10.0243 60.5603C7.20525 57.4971 4.8769 53.9761 3.0693 50.1886C3.92553 49.761 4.79678 49.3586 5.69307 49.0216C6.31397 48.7751 6.95489 48.5991 7.59581 48.408L8.5572 48.1213L9.5336 47.905C12.1374 47.3014 14.8412 47.1052 17.5451 47.2058C20.249 47.3014 22.9529 47.739 25.6218 48.3878C27.8049 48.9512 29.963 49.6604 32.0861 50.4954C33.0324 51.1292 34.0189 51.6975 35.0303 52.1955C37.4989 53.4228 40.1427 54.2075 42.8065 54.7004C41.5147 54.288 40.2328 53.8453 39.001 53.2971C37.7592 52.7739 36.5675 52.1553 35.4209 51.4611C33.1226 50.103 31.0596 48.3778 29.3572 46.3759C25.9773 42.3268 24.2398 37.1359 23.8743 31.9098C23.709 29.2942 23.7741 26.6434 24.2348 24.0429C24.375 22.7301 24.7305 21.4525 24.9909 20.1598C25.1461 19.521 25.3564 18.8923 25.5366 18.2535C25.7269 17.6197 25.8922 16.9809 26.1475 16.3673C27.8099 11.785 30.0932 7.41398 32.9573 3.44033C35.1805 5.3165 37.2185 7.41398 38.986 9.73781C40.9989 12.3986 42.7164 15.2959 44.0383 18.3843C44.7293 19.9184 45.2751 21.5129 45.7808 23.1275C46.2264 24.7572 46.6771 26.3919 46.9675 28.0669C47.5834 31.4068 47.8638 34.8271 47.8287 38.2676C48.2594 34.8573 48.3295 31.3766 47.9439 27.9261L47.9389 27.9412Z" fill="#EAAA2A"/>
<path d="M46.0762 59.0612C46.5869 58.4475 47.1177 57.7835 47.6535 57.0643C48.6299 55.7565 49.3058 54.8461 49.8817 53.8904C49.1456 53.654 48.4546 53.2516 47.8487 52.7637C47.1778 54.4487 46.2565 56.4707 44.9746 58.9153C45.3001 58.9505 45.6656 59.0008 46.0762 59.0662V59.0612Z" fill="#EAAA2A"/>
<path d="M49.1655 48.8256C48.9302 49.7309 48.5897 50.8325 48.084 52.1554C48.6999 52.6835 49.4259 53.1111 50.202 53.3374C50.3623 53.0457 50.5175 52.7489 50.6727 52.422C51.2586 51.1796 51.6391 49.8919 52.0146 48.1415C51.3637 47.8799 50.5375 47.6486 49.501 47.5278C49.3308 48.2069 49.2106 48.6646 49.1705 48.8256H49.1655Z" fill="#EAAA2A"/>
<path d="M71.8678 24.0228C70.1854 22.5037 67.5516 23.0973 66.2848 23.384C63.0652 24.1083 61.0272 26.0096 59.0544 27.8506C57.5873 29.2187 56.4306 30.6422 55.7046 31.9751C55.1988 32.9006 54.8033 33.8815 54.5079 34.9025C54.3526 34.8372 54.1924 34.7869 54.0222 34.7567C53.8819 34.7315 53.7468 34.7265 53.6116 34.7265C53.8068 30.939 54.8283 25.7933 58.3884 21.3569C58.9793 20.6226 64.2669 14.2094 68.2476 15.4166C68.6132 15.5272 70.4708 16.166 70.8964 17.7756C71.1268 18.6508 70.8514 19.4707 70.571 20.024C70.4408 19.9385 70.2956 19.8781 70.1354 19.8479C69.5044 19.7373 68.8986 20.1598 68.7884 20.7936C68.6783 21.4273 69.0989 22.036 69.7298 22.1466C70.3607 22.2573 70.9665 21.8348 71.0767 21.201C71.1168 20.9696 71.0867 20.7433 71.0016 20.5421C71.3671 19.9083 71.8178 18.8168 71.5023 17.6147C70.9966 15.6832 68.8535 14.9438 68.4329 14.818C64.1517 13.5203 58.9142 19.7071 57.9077 20.9646C54.2074 25.577 53.1709 30.9239 52.9857 34.817C52.1595 35.0534 51.4935 35.7375 51.3333 36.6479C51.2131 37.332 51.4084 37.9909 51.804 38.4939C51.5987 39.2987 51.2632 40.6266 51.0078 41.6276C51.6387 41.8338 52.3748 42.0451 53.1158 42.1959C53.3011 41.0793 53.4463 40.1236 53.5515 39.3842C54.6881 39.4194 55.7096 38.6247 55.9099 37.4678C56.0651 36.5976 55.7096 35.7576 55.0637 35.2395C55.3491 34.2084 55.7496 33.2125 56.2554 32.2769C56.9514 31.0043 58.068 29.6312 59.485 28.3083C61.3978 26.5227 63.3756 24.6817 66.43 23.9926C67.6868 23.7109 70.0202 23.1828 71.4623 24.4855C71.6025 24.6113 72.8392 25.7732 72.4837 27.0609C72.3736 27.4582 72.1382 27.76 71.8979 27.9864C71.7427 27.8405 71.5424 27.7349 71.3171 27.6946C70.6861 27.584 70.0803 28.0065 69.9701 28.6403C69.86 29.274 70.2806 29.8827 70.9115 29.9933C71.5424 30.104 72.1482 29.6815 72.2584 29.0477C72.2885 28.8716 72.2784 28.7006 72.2334 28.5346C72.5789 28.2379 72.9294 27.8053 73.0896 27.2218C73.5403 25.577 72.0531 24.1737 71.8829 24.0178L71.8678 24.0228Z" fill="#EAAA2A"/>
<path d="M44.6539 59.5088C44.1832 60.3941 43.6675 61.3246 43.0967 62.3155C43.8127 61.6063 44.6689 60.7059 45.5953 59.6245C45.2448 59.5742 44.9293 59.5339 44.6489 59.5088H44.6539Z" fill="#EAAA2A"/>
<path d="M50.7278 42.689C50.3022 44.3539 49.9316 45.8227 49.6562 46.9142C50.6627 47.0349 51.4839 47.2512 52.1498 47.5077C52.3652 46.4363 52.5855 45.1939 52.8509 43.7051C52.9059 43.3982 52.956 43.1015 53.0061 42.8148C52.245 42.6588 51.4939 42.4476 50.848 42.2363C50.8029 42.4124 50.7628 42.5733 50.7328 42.6941L50.7278 42.689Z" fill="#EAAA2A"/>
<path d="M65.8948 40.5662V45.3195H72.249V48.3324H65.8948V53.3573H73.0601V56.4558H62.1094V37.4678H73.0601V40.5662H65.8948Z" fill="#505050"/>
<path d="M78.9283 56.0332C77.9569 55.5906 77.1858 54.987 76.6149 54.2274C76.0491 53.4679 75.7387 52.6229 75.6836 51.7024H79.4941C79.5642 52.2809 79.8496 52.7637 80.3453 53.141C80.841 53.5182 81.4569 53.7094 82.198 53.7094C82.939 53.7094 83.4798 53.5635 83.8904 53.2768C84.296 52.985 84.4963 52.6179 84.4963 52.1652C84.4963 51.6773 84.2459 51.3101 83.7502 51.0636C83.2545 50.8171 82.4684 50.5506 81.3868 50.2639C80.2702 49.9922 79.3539 49.7106 78.6429 49.4239C77.9318 49.1321 77.3159 48.6895 76.8052 48.0909C76.2895 47.4924 76.0341 46.6876 76.0341 45.6715C76.0341 44.8366 76.2744 44.077 76.7501 43.3879C77.2258 42.6988 77.9118 42.1556 78.8031 41.7582C79.6944 41.3609 80.7459 41.1597 81.9526 41.1597C83.7352 41.1597 85.1622 41.6073 86.2238 42.5027C87.2853 43.398 87.8712 44.6052 87.9813 46.1292H84.3561C84.301 45.5307 84.0557 45.0579 83.61 44.7007C83.1694 44.3486 82.5785 44.1726 81.8375 44.1726C81.1515 44.1726 80.6257 44.2983 80.2552 44.5549C79.8846 44.8064 79.6994 45.1635 79.6994 45.6162C79.6994 46.1242 79.9497 46.5065 80.4555 46.768C80.9612 47.0296 81.7423 47.2962 82.8089 47.5678C83.8904 47.8394 84.7817 48.1211 85.4877 48.4078C86.1887 48.6995 86.7996 49.1472 87.3103 49.7508C87.8261 50.3594 88.0915 51.1592 88.1065 52.1551C88.1065 53.0253 87.8661 53.8049 87.3905 54.489C86.9148 55.1731 86.2288 55.7163 85.3375 56.1036C84.4462 56.4909 83.4047 56.6871 82.213 56.6871C81.0213 56.6871 79.8897 56.4658 78.9133 56.0231L78.9283 56.0332Z" fill="#505050"/>
<path d="M105.046 50.0726H94.0957C94.1858 51.159 94.5663 52.0091 95.2323 52.6278C95.8983 53.2414 96.7194 53.5533 97.6908 53.5533C99.0979 53.5533 100.099 52.9447 100.69 51.7324H104.771C104.34 53.1811 103.509 54.3732 102.282 55.3037C101.056 56.2342 99.5535 56.702 97.7659 56.702C96.3239 56.702 95.032 56.3801 93.8854 55.7363C92.7387 55.0924 91.8474 54.182 91.2065 53.005C90.5656 51.828 90.2451 50.4699 90.2451 48.9308C90.2451 47.3916 90.5606 46.0084 91.1915 44.8314C91.8224 43.6544 92.7037 42.749 93.8403 42.1152C94.9769 41.4814 96.2838 41.1646 97.7609 41.1646C99.2381 41.1646 100.46 41.4714 101.586 42.0901C102.713 42.7037 103.589 43.5789 104.21 44.7107C104.831 45.8424 105.142 47.1401 105.142 48.6089C105.142 49.1521 105.107 49.64 105.031 50.0776L105.046 50.0726ZM101.236 47.5174C101.216 46.5416 100.865 45.7569 100.179 45.1684C99.4934 44.5799 98.6572 44.2831 97.6658 44.2831C96.7295 44.2831 95.9383 44.5698 95.2974 45.1382C94.6565 45.7066 94.2659 46.5013 94.1207 47.5174H101.231H101.236Z" fill="#505050"/>
<path d="M130.963 42.8902C132.09 44.0219 132.656 45.6013 132.656 47.6284V56.4559H128.87V48.1465C128.87 46.9695 128.575 46.0691 127.979 45.4454C127.383 44.8217 126.572 44.5098 125.545 44.5098C124.519 44.5098 123.703 44.8217 123.097 45.4454C122.491 46.0691 122.191 46.9695 122.191 48.1465V56.4559H118.405V48.1465C118.405 46.9695 118.11 46.0691 117.514 45.4454C116.918 44.8217 116.107 44.5098 115.08 44.5098C114.054 44.5098 113.208 44.8217 112.607 45.4454C112.001 46.0691 111.7 46.9695 111.7 48.1465V56.4559H107.915V41.4064H111.7V43.2272C112.186 42.5934 112.812 42.0955 113.578 41.7333C114.344 41.3712 115.186 41.1901 116.107 41.1901C117.279 41.1901 118.325 41.4416 119.241 41.9345C120.163 42.4325 120.874 43.1417 121.379 44.0672C121.865 43.197 122.571 42.5029 123.502 41.9748C124.429 41.4516 125.435 41.1851 126.517 41.1851C128.354 41.1851 129.837 41.7484 130.963 42.8852V42.8902Z" fill="#505050"/>
<path d="M142.049 41.8436C142.906 41.3909 143.882 41.1646 144.984 41.1646C146.265 41.1646 147.422 41.4815 148.459 42.1152C149.495 42.749 150.316 43.6494 150.917 44.8163C151.523 45.9833 151.823 47.3363 151.823 48.8755C151.823 50.4146 151.523 51.7777 150.917 52.9648C150.311 54.1519 149.495 55.0723 148.459 55.7212C147.422 56.3751 146.265 56.697 144.984 56.697C143.867 56.697 142.891 56.4757 142.049 56.0331C141.213 55.5904 140.537 55.012 140.036 54.3078V56.4556H136.251V36.356H140.036V43.6091C140.522 42.8848 141.193 42.2963 142.049 41.8436ZM147.402 46.5265C147.032 45.8676 146.546 45.3646 145.94 45.0175C145.334 44.6755 144.683 44.4994 143.977 44.4994C143.271 44.4994 142.645 44.6755 142.044 45.0276C141.443 45.3797 140.953 45.8927 140.582 46.5617C140.212 47.2307 140.026 48.0204 140.026 48.9258C140.026 49.8312 140.212 50.6209 140.582 51.2898C140.953 51.9588 141.438 52.4719 142.044 52.824C142.65 53.1761 143.291 53.3521 143.977 53.3521C144.663 53.3521 145.334 53.171 145.94 52.8089C146.546 52.4467 147.032 51.9286 147.402 51.2597C147.773 50.5907 147.958 49.7909 147.958 48.8704C147.958 47.95 147.773 47.1804 147.402 46.5215V46.5265Z" fill="#505050"/>
<path d="M158.368 36.356V56.4556H154.583V36.356H158.368Z" fill="#505050"/>
<path d="M168.873 41.9394C169.709 40.4656 170.856 39.3137 172.308 38.4888C173.76 37.6639 175.388 37.2515 177.19 37.2515C179.298 37.2515 181.146 37.7947 182.733 38.8812C184.32 39.9676 185.427 41.4716 186.058 43.388H181.707C181.276 42.4826 180.665 41.8036 179.879 41.3509C179.093 40.8982 178.187 40.6718 177.16 40.6718C176.058 40.6718 175.082 40.9283 174.226 41.4464C173.37 41.9645 172.704 42.6939 172.223 43.6345C171.747 44.5751 171.507 45.6816 171.507 46.9492C171.507 48.2167 171.747 49.2982 172.223 50.2488C172.699 51.1995 173.37 51.9338 174.226 52.4469C175.082 52.965 176.058 53.2215 177.16 53.2215C178.187 53.2215 179.093 52.9901 179.879 52.5274C180.665 52.0646 181.271 51.3806 181.707 50.4752H186.058C185.427 52.4117 184.325 53.9207 182.743 54.9971C181.161 56.0735 179.313 56.6117 177.185 56.6117C175.383 56.6117 173.755 56.1992 172.303 55.3743C170.851 54.5494 169.709 53.4026 168.868 51.9389C168.032 50.4701 167.611 48.8052 167.611 46.9391C167.611 45.073 168.032 43.4031 168.868 41.9293L168.873 41.9394Z" fill="#EAAA2A"/>
<path d="M194.991 41.869C195.777 41.4163 196.673 41.1899 197.68 41.1899V45.1837H196.678C195.487 45.1837 194.59 45.4654 193.99 46.0237C193.384 46.5871 193.083 47.5629 193.083 48.9562V56.4508H189.298V41.4012H193.083V43.7351C193.569 42.9404 194.205 42.3116 194.991 41.8589V41.869Z" fill="#EAAA2A"/>
<path d="M200.153 44.8314C200.759 43.6544 201.575 42.749 202.612 42.1152C203.648 41.4814 204.805 41.1646 206.087 41.1646C207.203 41.1646 208.18 41.3909 209.021 41.8436C209.857 42.2963 210.528 42.8647 211.034 43.5538V41.406H214.844V56.4556H211.034V54.2575C210.548 54.9617 209.877 55.5502 209.021 56.0079C208.165 56.4656 207.178 56.702 206.062 56.702C204.8 56.702 203.653 56.3751 202.617 55.7262C201.58 55.0774 200.759 54.1569 200.158 52.9698C199.552 51.7827 199.252 50.4196 199.252 48.8805C199.252 47.3413 199.552 46.0084 200.158 44.8314H200.153ZM210.498 46.5566C210.138 45.8977 209.652 45.3897 209.036 45.0376C208.425 44.6855 207.764 44.5095 207.063 44.5095C206.362 44.5095 205.711 44.6805 205.115 45.0275C204.52 45.3696 204.039 45.8726 203.668 46.5365C203.298 47.1954 203.113 47.9801 203.113 48.8855C203.113 49.7909 203.298 50.5856 203.668 51.2647C204.039 51.9437 204.525 52.4618 205.13 52.8239C205.736 53.1861 206.377 53.3672 207.063 53.3672C207.749 53.3672 208.425 53.1911 209.036 52.839C209.647 52.4869 210.138 51.9789 210.498 51.32C210.859 50.6611 211.039 49.8663 211.039 48.9459C211.039 48.0254 210.859 47.2307 210.498 46.5717V46.5566Z" fill="#EAAA2A"/>
<path d="M225.42 44.5298H222.796V56.4558H218.955V44.5298H217.253V41.4062H218.955V40.6467C218.955 38.8007 219.476 37.4426 220.523 36.5725C221.569 35.7023 223.146 35.2948 225.254 35.3502V38.5542C224.333 38.5341 223.697 38.6901 223.337 39.017C222.976 39.3439 222.796 39.9324 222.796 40.7825V41.4062H225.42V44.5298Z" fill="#EAAA2A"/>
<path d="M232.289 44.53V51.8083C232.289 52.3163 232.41 52.6835 232.655 52.9098C232.9 53.1362 233.306 53.2468 233.887 53.2468H235.644V56.4509H233.266C230.076 56.4509 228.479 54.8916 228.479 51.7781V44.5249H226.696V41.4013H228.479V37.6792H232.289V41.4013H235.644V44.5249H232.289V44.53Z" fill="#EAAA2A"/>
<path d="M240.807 56.0332C239.836 55.5906 239.065 54.987 238.494 54.2274C237.928 53.4679 237.618 52.6229 237.562 51.7024H241.373C241.443 52.2809 241.728 52.7637 242.224 53.141C242.72 53.5182 243.336 53.7094 244.077 53.7094C244.818 53.7094 245.359 53.5635 245.769 53.2768C246.175 52.985 246.375 52.6179 246.375 52.1652C246.375 51.6773 246.125 51.3101 245.629 51.0636C245.133 50.8171 244.347 50.5506 243.266 50.2639C242.149 49.9922 241.233 49.7106 240.522 49.4239C239.811 49.1321 239.195 48.6895 238.684 48.0909C238.168 47.4924 237.913 46.6876 237.913 45.6715C237.913 44.8366 238.153 44.077 238.629 43.3879C239.105 42.6988 239.791 42.1556 240.682 41.7582C241.573 41.3609 242.625 41.1597 243.832 41.1597C245.614 41.1597 247.041 41.6073 248.103 42.5027C249.164 43.398 249.75 44.6052 249.86 46.1292H246.235C246.18 45.5307 245.935 45.0579 245.489 44.7007C245.048 44.3486 244.457 44.1726 243.716 44.1726C243.03 44.1726 242.505 44.2983 242.134 44.5549C241.764 44.8064 241.578 45.1635 241.578 45.6162C241.578 46.1242 241.829 46.5065 242.334 46.768C242.84 47.0296 243.621 47.2962 244.688 47.5678C245.769 47.8394 246.661 48.1211 247.367 48.4078C248.068 48.6995 248.679 49.1472 249.189 49.7508C249.705 50.3594 249.97 51.1592 249.985 52.1551C249.985 53.0253 249.745 53.8049 249.269 54.489C248.794 55.1731 248.108 55.7163 247.216 56.1036C246.325 56.4909 245.284 56.6871 244.092 56.6871C242.9 56.6871 241.769 56.4658 240.792 56.0231L240.807 56.0332Z" fill="#EAAA2A"/>
<path d="M62.8901 64.5287V67.109H65.6891V67.939H62.8901V70.5948H66.0196V71.4247H61.8887V63.6987H66.0196V64.5287H62.8901Z" fill="#505050"/>
<path d="M79.0035 65.5396C79.369 65.7358 79.6594 66.0275 79.8747 66.4198C80.085 66.8122 80.1952 67.285 80.1952 67.8483V71.4246H79.2038V67.9942C79.2038 67.3906 79.0535 66.9279 78.7581 66.6059C78.4627 66.284 78.0571 66.1231 77.5514 66.1231C77.0457 66.1231 76.615 66.2891 76.3046 66.6261C75.9941 66.9631 75.8439 67.4459 75.8439 68.0797V71.4196H74.8525V67.9892C74.8525 67.3856 74.7023 66.9228 74.4069 66.6009C74.1114 66.279 73.7058 66.118 73.2001 66.118C72.6944 66.118 72.2638 66.284 71.9533 66.621C71.6429 66.958 71.4927 67.4409 71.4927 68.0747V71.4146H70.4912V65.3485H71.4927V66.2237C71.6929 65.9068 71.9583 65.6653 72.2888 65.4943C72.6243 65.3233 72.9898 65.2378 73.3954 65.2378C73.9011 65.2378 74.3518 65.3535 74.7373 65.5798C75.1279 65.8062 75.4183 66.1432 75.6086 66.5858C75.7788 66.1583 76.0542 65.8263 76.4448 65.5899C76.8353 65.3535 77.266 65.2378 77.7467 65.2378C78.2274 65.2378 78.6329 65.3384 79.0035 65.5295V65.5396Z" fill="#505050"/>
<path d="M86.6748 65.6054C87.0654 65.374 87.5261 65.2583 88.0468 65.2583C88.5676 65.2583 89.0683 65.3891 89.5089 65.6456C89.9445 65.9021 90.29 66.2693 90.5404 66.7371C90.7908 67.2049 90.9159 67.7481 90.9159 68.3718C90.9159 68.9955 90.7908 69.5287 90.5404 70.0116C90.29 70.4894 89.9495 70.8616 89.5089 71.1282C89.0733 71.3948 88.5876 71.5256 88.0468 71.5256C87.506 71.5256 87.0804 71.4099 86.6848 71.1785C86.2893 70.9472 85.9938 70.6554 85.7886 70.3084V74.3021H84.7871V65.3589H85.7886V66.4755C85.9888 66.1285 86.2843 65.8418 86.6748 65.6054ZM89.6141 67.1747C89.4288 66.8377 89.1834 66.5761 88.868 66.4001C88.5575 66.224 88.212 66.1335 87.8365 66.1335C87.461 66.1335 87.1305 66.224 86.815 66.4051C86.4996 66.5862 86.2542 66.8478 86.0639 67.1898C85.8737 67.5318 85.7835 67.9292 85.7835 68.3819C85.7835 68.8346 85.8787 69.242 86.0639 69.584C86.2492 69.9261 86.4996 70.1876 86.815 70.3687C87.1305 70.5498 87.466 70.6403 87.8365 70.6403C88.207 70.6403 88.5525 70.5498 88.868 70.3687C89.1834 70.1876 89.4288 69.9261 89.6141 69.584C89.7993 69.242 89.8895 68.8346 89.8895 68.3718C89.8895 67.9091 89.7993 67.5167 89.6141 67.1747Z" fill="#505050"/>
<path d="M96.2836 71.1329C95.823 70.8764 95.4625 70.5092 95.2021 70.0314C94.9417 69.5535 94.8115 69.0053 94.8115 68.3765C94.8115 67.7478 94.9467 67.2096 95.2121 66.7317C95.4825 66.2539 95.843 65.8917 96.3087 65.6352C96.7693 65.3787 97.2901 65.2529 97.8609 65.2529C98.4317 65.2529 98.9525 65.3787 99.4131 65.6352C99.8738 65.8917 100.239 66.2539 100.51 66.7267C100.78 67.1995 100.91 67.7478 100.91 68.3765C100.91 69.0053 100.775 69.5535 100.495 70.0314C100.219 70.5092 99.8488 70.8764 99.3781 71.1329C98.9074 71.3895 98.3867 71.5202 97.8158 71.5202C97.245 71.5202 96.7393 71.3895 96.2786 71.1329H96.2836ZM98.8323 70.3835C99.1478 70.2124 99.4031 69.961 99.5984 69.6189C99.7937 69.2769 99.8888 68.8644 99.8888 68.3816C99.8888 67.8987 99.7937 67.4812 99.6034 67.1442C99.4131 66.8072 99.1628 66.5507 98.8523 66.3847C98.5419 66.2187 98.2114 66.1382 97.8509 66.1382C97.4904 66.1382 97.1499 66.2237 96.8444 66.3847C96.539 66.5507 96.2937 66.8022 96.1134 67.1442C95.9281 67.4812 95.838 67.8987 95.838 68.3816C95.838 68.8644 95.9281 69.292 96.1084 69.634C96.2886 69.971 96.529 70.2275 96.8294 70.3935C97.1299 70.5595 97.4603 70.645 97.8209 70.645C98.1814 70.645 98.5169 70.5595 98.8323 70.3885V70.3835Z" fill="#505050"/>
<path d="M113.233 65.3589L111.35 71.425H110.314L108.862 66.6113L107.41 71.425H106.373L104.48 65.3589H105.507L106.894 70.4492L108.391 65.3589H109.418L110.885 70.4592L112.252 65.3589H113.243H113.233Z" fill="#505050"/>
<path d="M122.651 68.7638H117.824C117.859 69.3624 118.065 69.8302 118.435 70.1622C118.806 70.4992 119.256 70.6651 119.787 70.6651C120.223 70.6651 120.583 70.5645 120.874 70.3633C121.164 70.1621 121.369 69.8905 121.484 69.5485H122.566C122.406 70.132 122.08 70.6048 121.595 70.972C121.109 71.3392 120.508 71.5202 119.787 71.5202C119.216 71.5202 118.7 71.3895 118.25 71.1329C117.799 70.8764 117.444 70.5092 117.188 70.0314C116.933 69.5535 116.803 69.0053 116.803 68.3765C116.803 67.7478 116.928 67.1995 117.178 66.7267C117.429 66.2539 117.779 65.8917 118.23 65.6352C118.68 65.3787 119.201 65.2529 119.787 65.2529C120.373 65.2529 120.869 65.3787 121.309 65.6302C121.75 65.8817 122.09 66.2237 122.326 66.6663C122.566 67.1039 122.686 67.6019 122.686 68.1552C122.686 68.3463 122.676 68.5526 122.651 68.7638ZM121.394 66.9581C121.224 66.6814 120.994 66.4702 120.703 66.3293C120.413 66.1835 120.092 66.1131 119.742 66.1131C119.236 66.1131 118.806 66.274 118.45 66.601C118.095 66.9279 117.889 67.3756 117.839 67.949H121.65C121.65 67.5667 121.565 67.2347 121.394 66.9581Z" fill="#505050"/>
<path d="M128.715 65.5347C129.04 65.3436 129.441 65.248 129.911 65.248V66.2892H129.646C128.524 66.2892 127.958 66.9029 127.958 68.1252V71.4248H126.957V65.3587H127.958V66.3446C128.134 65.9975 128.384 65.7309 128.715 65.5347Z" fill="#505050"/>
<path d="M145.289 63.709L142.79 68.5126V71.4249H141.789V68.5126L139.275 63.709H140.387L142.28 67.6172L144.172 63.709H145.284H145.289Z" fill="#505050"/>
<path d="M150.391 71.1329C149.93 70.8764 149.57 70.5092 149.31 70.0314C149.049 69.5535 148.919 69.0053 148.919 68.3765C148.919 67.7478 149.054 67.2096 149.32 66.7317C149.59 66.2539 149.95 65.8917 150.416 65.6352C150.877 65.3787 151.398 65.2529 151.968 65.2529C152.539 65.2529 153.06 65.3787 153.521 65.6352C153.981 65.8917 154.347 66.2539 154.617 66.7267C154.888 67.1995 155.018 67.7478 155.018 68.3765C155.018 69.0053 154.883 69.5535 154.602 70.0314C154.327 70.5092 153.956 70.8764 153.486 71.1329C153.015 71.3895 152.494 71.5202 151.923 71.5202C151.352 71.5202 150.847 71.3895 150.386 71.1329H150.391ZM152.945 70.3835C153.26 70.2124 153.516 69.961 153.711 69.6189C153.906 69.2769 154.001 68.8644 154.001 68.3816C154.001 67.8987 153.906 67.4812 153.716 67.1442C153.526 66.8072 153.275 66.5507 152.965 66.3847C152.654 66.2187 152.324 66.1382 151.963 66.1382C151.603 66.1382 151.262 66.2237 150.957 66.3847C150.651 66.5507 150.406 66.8022 150.226 67.1442C150.041 67.4812 149.95 67.8987 149.95 68.3816C149.95 68.8644 150.041 69.292 150.221 69.634C150.401 69.971 150.641 70.2275 150.942 70.3935C151.242 70.5595 151.573 70.645 151.933 70.645C152.294 70.645 152.629 70.5595 152.945 70.3885V70.3835Z" fill="#505050"/>
<path d="M164.652 65.3589V71.425H163.65V70.5297C163.46 70.8415 163.195 71.083 162.854 71.254C162.514 71.425 162.138 71.5155 161.728 71.5155C161.257 71.5155 160.836 71.42 160.461 71.2238C160.085 71.0276 159.79 70.7359 159.574 70.3436C159.359 69.9512 159.249 69.4784 159.249 68.915V65.3639H160.24V68.7843C160.24 69.3828 160.391 69.8406 160.691 70.1625C160.992 70.4844 161.402 70.6453 161.923 70.6453C162.444 70.6453 162.879 70.4794 163.19 70.1474C163.5 69.8154 163.65 69.3325 163.65 68.6988V65.3689H164.652V65.3589Z" fill="#505050"/>
<path d="M171.061 65.5347C171.387 65.3436 171.787 65.248 172.258 65.248V66.2892H171.993C170.871 66.2892 170.305 66.9029 170.305 68.1252V71.4248H169.304V65.3587H170.305V66.3446C170.48 65.9975 170.731 65.7309 171.061 65.5347Z" fill="#505050"/>
<path d="M186.868 67.7933C187.099 67.9794 187.284 68.2057 187.419 68.4774C187.554 68.749 187.624 69.0407 187.624 69.3526C187.624 69.7449 187.524 70.097 187.329 70.4089C187.129 70.7207 186.843 70.9672 186.463 71.1483C186.082 71.3293 185.637 71.4199 185.126 71.4199H182.262V63.709H185.016C185.536 63.709 185.982 63.7945 186.348 63.9705C186.713 64.1416 186.989 64.378 187.174 64.6747C187.359 64.9715 187.449 65.3035 187.449 65.6707C187.449 66.1284 187.324 66.5056 187.079 66.8074C186.833 67.1042 186.508 67.3205 186.102 67.4563C186.383 67.5016 186.638 67.6172 186.868 67.7983V67.7933ZM183.258 67.0388H184.946C185.416 67.0388 185.782 66.9281 186.037 66.7068C186.293 66.4855 186.423 66.1787 186.423 65.7863C186.423 65.394 186.293 65.0872 186.037 64.8659C185.782 64.6446 185.411 64.5339 184.926 64.5339H183.263V67.0338L183.258 67.0388ZM186.197 70.2378C186.478 70.0014 186.618 69.6745 186.618 69.252C186.618 68.8295 186.473 68.4874 186.177 68.241C185.882 67.9945 185.491 67.8687 185.001 67.8687H183.258V70.5899H185.031C185.531 70.5899 185.917 70.4742 186.197 70.2378Z" fill="#505050"/>
<path d="M197.314 65.3589V71.425H196.312V70.5297C196.122 70.8415 195.857 71.083 195.516 71.254C195.176 71.425 194.8 71.5155 194.39 71.5155C193.919 71.5155 193.498 71.42 193.123 71.2238C192.747 71.0276 192.452 70.7359 192.237 70.3436C192.021 69.9512 191.911 69.4784 191.911 68.915V65.3639H192.903V68.7843C192.903 69.3828 193.053 69.8406 193.353 70.1625C193.654 70.4844 194.064 70.6453 194.585 70.6453C195.106 70.6453 195.541 70.4794 195.852 70.1474C196.162 69.8154 196.312 69.3325 196.312 68.6988V65.3689H197.314V65.3589Z" fill="#505050"/>
<path d="M202.857 71.2838C202.491 71.1279 202.201 70.9066 201.985 70.6199C201.77 70.3382 201.655 70.0112 201.635 69.639H202.671C202.701 69.9408 202.841 70.1873 203.097 70.3784C203.352 70.5696 203.683 70.6651 204.093 70.6651C204.474 70.6651 204.774 70.5796 204.995 70.4086C205.215 70.2376 205.325 70.0263 205.325 69.7648C205.325 69.5032 205.205 69.302 204.975 69.1713C204.739 69.0405 204.374 68.9147 203.883 68.789C203.432 68.6733 203.072 68.5526 202.786 68.4319C202.501 68.3111 202.261 68.1301 202.06 67.8886C201.86 67.6472 201.76 67.3353 201.76 66.943C201.76 66.6311 201.85 66.3495 202.035 66.0929C202.221 65.8364 202.481 65.6302 202.816 65.4793C203.152 65.3284 203.537 65.2529 203.973 65.2529C204.639 65.2529 205.18 65.424 205.59 65.761C206.001 66.098 206.221 66.5657 206.251 67.1542H205.25C205.23 66.8374 205.1 66.5808 204.869 66.3897C204.639 66.1986 204.329 66.103 203.938 66.103C203.578 66.103 203.292 66.1784 203.077 66.3344C202.862 66.4903 202.756 66.6915 202.756 66.943C202.756 67.1442 202.821 67.3051 202.947 67.4359C203.077 67.5667 203.237 67.6673 203.432 67.7478C203.628 67.8283 203.898 67.9138 204.244 68.0093C204.679 68.1301 205.03 68.2457 205.3 68.3564C205.57 68.4721 205.806 68.6431 206.001 68.8695C206.196 69.0958 206.296 69.3976 206.306 69.7648C206.306 70.0968 206.216 70.3935 206.031 70.6601C205.846 70.9267 205.59 71.1329 205.255 71.2838C204.92 71.4347 204.539 71.5102 204.103 71.5102C203.643 71.5102 203.227 71.4297 202.857 71.2738V71.2838Z" fill="#505050"/>
<path d="M210.698 64.1716C210.568 64.0409 210.498 63.8749 210.498 63.6837C210.498 63.4926 210.563 63.3316 210.698 63.1958C210.834 63.06 210.994 62.9946 211.184 62.9946C211.374 62.9946 211.525 63.06 211.655 63.1958C211.785 63.3266 211.845 63.4926 211.845 63.6837C211.845 63.8749 211.78 64.0358 211.655 64.1716C211.53 64.3074 211.369 64.3728 211.184 64.3728C210.999 64.3728 210.834 64.3074 210.698 64.1716ZM211.67 65.3587V71.4248H210.668V65.3587H211.67Z" fill="#505050"/>
<path d="M221.053 65.917C221.509 66.3647 221.734 67.0085 221.734 67.8485V71.4248H220.742V67.9944C220.742 67.3908 220.592 66.928 220.292 66.6061C219.991 66.2842 219.581 66.1233 219.06 66.1233C218.539 66.1233 218.109 66.2892 217.798 66.6212C217.488 66.9532 217.332 67.4361 217.332 68.0698V71.4248H216.331V65.3587H217.332V66.2239C217.533 65.912 217.798 65.6756 218.144 65.5046C218.484 65.3336 218.86 65.248 219.27 65.248C220.006 65.248 220.597 65.4694 221.053 65.917Z" fill="#505050"/>
<path d="M231.803 68.7638H226.977C227.012 69.3624 227.217 69.8302 227.587 70.1622C227.958 70.4992 228.409 70.6651 228.939 70.6651C229.375 70.6651 229.736 70.5645 230.026 70.3633C230.316 70.1621 230.522 69.8905 230.637 69.5485H231.718C231.558 70.132 231.233 70.6048 230.747 70.972C230.261 71.3392 229.66 71.5202 228.939 71.5202C228.369 71.5202 227.853 71.3895 227.402 71.1329C226.952 70.8764 226.596 70.5092 226.341 70.0314C226.085 69.5535 225.955 69.0053 225.955 68.3765C225.955 67.7478 226.08 67.1995 226.331 66.7267C226.581 66.2539 226.931 65.8917 227.382 65.6352C227.833 65.3787 228.354 65.2529 228.939 65.2529C229.525 65.2529 230.021 65.3787 230.462 65.6302C230.902 65.8817 231.243 66.2237 231.478 66.6663C231.718 67.1039 231.839 67.6019 231.839 68.1552C231.839 68.3463 231.829 68.5526 231.803 68.7638ZM230.547 66.9581C230.376 66.6814 230.146 66.4702 229.856 66.3293C229.565 66.1835 229.245 66.1131 228.894 66.1131C228.389 66.1131 227.958 66.274 227.602 66.601C227.247 66.9279 227.042 67.3756 226.992 67.949H230.802C230.802 67.5667 230.717 67.2347 230.547 66.9581Z" fill="#505050"/>
<path d="M237.006 71.2838C236.64 71.1279 236.35 70.9066 236.135 70.6199C235.919 70.3382 235.804 70.0112 235.784 69.639H236.821C236.851 69.9408 236.991 70.1873 237.246 70.3784C237.502 70.5696 237.832 70.6651 238.243 70.6651C238.623 70.6651 238.924 70.5796 239.144 70.4086C239.364 70.2376 239.474 70.0263 239.474 69.7648C239.474 69.5032 239.354 69.302 239.124 69.1713C238.889 69.0405 238.523 68.9147 238.032 68.789C237.582 68.6733 237.221 68.5526 236.936 68.4319C236.65 68.3111 236.41 68.1301 236.21 67.8886C236.009 67.6472 235.909 67.3353 235.909 66.943C235.909 66.6311 235.999 66.3495 236.185 66.0929C236.37 65.8364 236.63 65.6302 236.966 65.4793C237.301 65.3284 237.687 65.2529 238.123 65.2529C238.788 65.2529 239.329 65.424 239.74 65.761C240.15 66.098 240.371 66.5657 240.401 67.1542H239.399C239.379 66.8374 239.249 66.5808 239.019 66.3897C238.789 66.1986 238.478 66.103 238.087 66.103C237.727 66.103 237.442 66.1784 237.226 66.3344C237.011 66.4903 236.906 66.6915 236.906 66.943C236.906 67.1442 236.971 67.3051 237.096 67.4359C237.226 67.5667 237.386 67.6673 237.582 67.7478C237.777 67.8283 238.047 67.9138 238.393 68.0093C238.829 68.1301 239.179 68.2457 239.449 68.3564C239.72 68.4721 239.955 68.6431 240.15 68.8695C240.346 69.0958 240.446 69.3976 240.456 69.7648C240.456 70.0968 240.366 70.3935 240.181 70.6601C239.995 70.9267 239.74 71.1329 239.404 71.2838C239.069 71.4347 238.688 71.5102 238.253 71.5102C237.792 71.5102 237.376 71.4297 237.006 71.2738V71.2838Z" fill="#505050"/>
<path d="M245.708 71.2838C245.343 71.1279 245.052 70.9066 244.837 70.6199C244.622 70.3382 244.506 70.0112 244.486 69.639H245.523C245.553 69.9408 245.693 70.1873 245.948 70.3784C246.204 70.5696 246.534 70.6651 246.945 70.6651C247.325 70.6651 247.626 70.5796 247.846 70.4086C248.066 70.2376 248.177 70.0263 248.177 69.7648C248.177 69.5032 248.056 69.302 247.826 69.1713C247.591 69.0405 247.225 68.9147 246.735 68.789C246.284 68.6733 245.923 68.5526 245.638 68.4319C245.353 68.3111 245.112 68.1301 244.912 67.8886C244.712 67.6472 244.612 67.3353 244.612 66.943C244.612 66.6311 244.702 66.3495 244.887 66.0929C245.072 65.8364 245.333 65.6302 245.668 65.4793C246.004 65.3284 246.389 65.2529 246.825 65.2529C247.491 65.2529 248.031 65.424 248.442 65.761C248.853 66.098 249.073 66.5657 249.103 67.1542H248.102C248.082 66.8374 247.951 66.5808 247.721 66.3897C247.491 66.1986 247.18 66.103 246.79 66.103C246.429 66.103 246.144 66.1784 245.928 66.3344C245.713 66.4903 245.608 66.6915 245.608 66.943C245.608 67.1442 245.673 67.3051 245.798 67.4359C245.928 67.5667 246.089 67.6673 246.284 67.7478C246.479 67.8283 246.75 67.9138 247.095 68.0093C247.531 68.1301 247.881 68.2457 248.152 68.3564C248.422 68.4721 248.657 68.6431 248.853 68.8695C249.048 69.0958 249.148 69.3976 249.158 69.7648C249.158 70.0968 249.068 70.3935 248.883 70.6601C248.697 70.9267 248.442 71.1329 248.107 71.2838C247.771 71.4347 247.391 71.5102 246.955 71.5102C246.494 71.5102 246.079 71.4297 245.708 71.2738V71.2838Z" fill="#505050"/>
</svg>
