<svg width="26" height="27" viewBox="0 0 26 27" fill="none" xmlns="http://www.w3.org/2000/svg">
<path d="M5.81953 10.8445C5.81953 10.0162 5.96432 9.23371 6.24965 8.50335C6.52226 7.79397 6.92728 7.1429 7.44313 6.58484C7.95793 6.0341 8.54704 5.55787 9.19342 5.16991C9.85661 4.7687 10.5746 4.46601 11.3249 4.27134C12.0842 4.07195 12.8661 3.9714 13.6511 3.97217C14.8638 3.97217 15.9923 4.22875 17.0389 4.73979C18.0718 5.24151 18.9509 6.01146 19.5845 6.96918C20.2382 7.94334 20.5629 9.04526 20.5629 10.2739C20.5629 11.0106 20.4905 11.7314 20.3425 12.4362C20.1972 13.1406 19.9662 13.8246 19.6547 14.4729C19.3578 15.1004 18.9696 15.6806 18.5028 16.1944C18.0336 16.7001 17.4653 17.1038 16.8334 17.3805C16.1473 17.6811 15.4052 17.8325 14.6562 17.8244C14.1356 17.8244 13.616 17.702 13.1028 17.456C12.5897 17.2112 12.2213 16.8747 11.9999 16.4436C11.9221 16.7427 11.8157 17.175 11.6741 17.7403C11.5378 18.3046 11.4462 18.6687 11.4058 18.8337C11.3632 18.9977 11.2844 19.2713 11.1694 19.6503C11.0914 19.9307 10.9914 20.2044 10.8703 20.469L10.504 21.1866C10.3456 21.4945 10.1686 21.7925 9.97382 22.0788C9.78111 22.3577 9.54263 22.691 9.25837 23.0742L9.09973 23.1307L8.99433 23.0157C8.88041 21.8094 8.82186 21.0876 8.82186 20.8491C8.82186 20.1432 8.90597 19.3511 9.07205 18.4717C9.23494 17.5934 9.49259 16.4893 9.8386 15.1617C10.1846 13.8352 10.3826 13.0548 10.4359 12.8237C10.1921 12.3265 10.0686 11.6771 10.0686 10.8786C10.0686 10.2409 10.2677 9.6436 10.6669 9.08146C11.0672 8.52145 11.5729 8.24145 12.1862 8.24145C12.6557 8.24145 13.0198 8.39689 13.2806 8.70883C13.5425 9.01971 13.6703 9.4115 13.6703 9.88953C13.6703 10.3963 13.5021 11.1299 13.1635 12.0891C12.825 13.0494 12.6567 13.7659 12.6567 14.2419C12.6567 14.7241 12.8292 15.1276 13.1742 15.4438C13.5146 15.7602 13.9648 15.9317 14.4294 15.9219C14.851 15.9219 15.2417 15.8261 15.6048 15.6334C15.9622 15.4463 16.2715 15.1792 16.5087 14.853C17.0253 14.1442 17.3935 13.3385 17.5914 12.4841C17.6936 12.0348 17.7724 11.6079 17.8214 11.2065C17.8736 10.803 17.8959 10.4219 17.8959 10.0599C17.8959 8.73225 17.4743 7.69741 16.6364 6.9564C15.7943 6.2154 14.6977 5.84703 13.3488 5.84703C11.8146 5.84703 10.5317 6.34316 9.5043 7.33862C8.47584 8.33088 7.95842 9.5925 7.95842 11.1224C7.95842 11.4599 8.00952 11.7857 8.10641 12.1008C8.20116 12.4149 8.30443 12.6651 8.41622 12.8503C8.52695 13.0324 8.63128 13.2102 8.72604 13.3742C8.82186 13.5381 8.8719 13.6552 8.8719 13.7255C8.8719 13.9406 8.81547 14.2206 8.70155 14.5666C8.58337 14.9126 8.4439 15.0851 8.27569 15.0851C8.25972 15.0851 8.19371 15.0733 8.07873 15.0489C7.68051 14.93 7.32088 14.7077 7.03643 14.4047C6.73453 14.0907 6.49628 13.7212 6.33482 13.3167C6.17382 12.9135 6.04842 12.4971 5.96006 12.0721C5.86459 11.6699 5.81742 11.2578 5.81953 10.8445Z" fill="#4D4D4F"/>
</svg>
