<svg width="655" height="655" viewBox="0 0 655 655" fill="none" xmlns="http://www.w3.org/2000/svg">
<g opacity="0.03">
<path d="M327.5 613.866C498.432 613.866 637.001 593.438 637.001 568.239C637.001 543.039 498.432 522.611 327.5 522.611C156.568 522.611 17.9994 543.039 17.9994 568.239C17.9994 593.438 156.568 613.866 327.5 613.866Z" fill="#F4D18C"/>
</g>
<path d="M174.125 257.651L160.541 317.61H237.176L234.045 309.54H204.308L209.404 259.786L174.125 257.651Z" fill="#24285B"/>
<path d="M282.004 140.065H92.5777V268.734H282.004V140.065Z" fill="#EAAA2A"/>
<g opacity="0.46">
<path d="M154.855 159.126H113.276V210.674H154.855V159.126Z" fill="white"/>
</g>
<g opacity="0.46">
<path d="M261.293 159.126H166.226V210.674H261.293V159.126Z" fill="white"/>
</g>
<g opacity="0.46">
<path d="M261.293 221.286H113.276V249.66H261.293V221.286Z" fill="white"/>
</g>
<path d="M282.004 257.651H92.5777V282.004H282.004V257.651Z" fill="#484E94"/>
<path d="M194.325 276.017C198.218 276.017 201.373 272.862 201.373 268.97C201.373 265.077 198.218 261.922 194.325 261.922C190.433 261.922 187.278 265.077 187.278 268.97C187.278 272.862 190.433 276.017 194.325 276.017Z" fill="#F4D18C"/>
<path d="M490.49 268.72H392.725V317.832H490.49V268.72Z" fill="#FFD200"/>
<path d="M569.156 332.491H70.9496V551.117H569.156V332.491Z" fill="#EAAA2A"/>
<path d="M569.156 317.845H70.9496V352.141H569.156V317.845Z" fill="#F4D18C"/>
<path d="M96.2588 352.141H70.9496V551.13H96.2588V352.141Z" fill="#FFD200"/>
<g opacity="0.61">
<path d="M201.923 352.141H96.2588V551.13H201.923V352.141Z" fill="#FFD200"/>
</g>
<path d="M190.762 367.56H107.42V408.746H190.762V367.56Z" fill="#FFE1A5"/>
<path d="M190.762 431.92H107.42V473.106H190.762V431.92Z" fill="#FFE1A5"/>
<path d="M147.545 395.266C151.025 395.266 153.846 392.445 153.846 388.965C153.846 385.485 151.025 382.664 147.545 382.664C144.065 382.664 141.244 385.485 141.244 388.965C141.244 392.445 144.065 395.266 147.545 395.266Z" fill="#EAAA2A"/>
<path d="M147.545 458.827C151.025 458.827 153.846 456.006 153.846 452.526C153.846 449.046 151.025 446.225 147.545 446.225C144.065 446.225 141.244 449.046 141.244 452.526C141.244 456.006 144.065 458.827 147.545 458.827Z" fill="#EAAA2A"/>
<path d="M183.348 495.193H112.254V551.117H183.348V495.193Z" fill="#FFE1A5"/>
<path d="M548.078 88.8575C561.26 88.8575 571.946 78.1713 571.946 64.9893C571.946 51.8073 561.26 41.1211 548.078 41.1211C534.896 41.1211 524.21 51.8073 524.21 64.9893C524.21 78.1713 534.896 88.8575 548.078 88.8575Z" fill="#24285B"/>
<path d="M412.336 560.012C412.336 560.012 415.99 568.043 408.825 569.811C401.659 571.58 400.873 578.981 407.698 579.793C414.523 580.605 430.034 569.549 430.034 569.549L427.335 556.344L412.322 560.012H412.336Z" fill="#EAAA2A"/>
<path d="M471.718 560.851C471.718 560.851 477.39 568.043 470.224 569.811C463.059 571.58 462.273 578.981 469.098 579.793C475.923 580.605 491.433 569.549 491.433 569.549L488.735 556.344L471.718 560.838V560.851Z" fill="#EAAA2A"/>
<path d="M543.401 446.226H522.284V560.012H543.401V446.226Z" fill="#FFD200"/>
<g opacity="0.08">
<path d="M543.401 446.226H522.284V560.012H543.401V446.226Z" fill="#000001"/>
</g>
<path d="M568.723 352.141H543.414V551.13H568.723V352.141Z" fill="#E6E6E6"/>
<g opacity="0.08">
<path d="M440.776 317.846L402.995 317.61L358.206 387.066C334.535 423.785 331.771 470.212 350.949 509.459L371.293 551.117H568.723L569.156 462.234L570.741 327.199L440.776 317.846Z" fill="#000001"/>
</g>
<path d="M485.617 382.677C485.617 382.677 462.286 227.77 516.729 201.098C571.173 174.427 658.969 199.081 618.962 390.668L616.984 411.969C614.324 440.462 590.417 462.247 561.807 462.247H451.308C431.029 462.247 424.833 434.488 443.304 426.13C448.989 423.563 455.539 421.349 463.085 419.737C474.639 417.261 483.233 407.528 484.372 395.777L485.643 382.691L485.617 382.677Z" fill="#FFD200"/>
<path d="M449.134 361.953L397.336 414.916C376.022 436.715 370.402 469.412 383.201 497.079L412.323 559.999L427.335 556.331L412.899 499.778C407.03 476.774 417.052 452.67 437.501 440.605L496.726 405.668L449.134 361.927V361.953Z" fill="#F4A28C"/>
<path d="M449.134 361.953L570.728 369.145C570.728 369.145 570.531 412.27 556.056 422.016C548.039 427.427 518.236 438.143 493.254 446.618C472.831 453.561 461.827 475.674 468.653 496.136L488.722 556.331L471.705 560.824L434.959 488.709C424.165 467.513 429.444 441.68 447.679 426.418L484.346 395.738L449.12 361.927L449.134 361.953Z" fill="#F4A28C"/>
<path d="M522.284 541.855H543.414L577.474 579.832H491.433L522.284 541.855Z" fill="#FFD200"/>
<g opacity="0.33">
<path d="M522.284 541.855H543.414L577.474 579.832H491.433L522.284 541.855Z" fill="white"/>
</g>
<path d="M581.889 355.573C581.889 355.573 598.893 397.873 560.588 422.056C522.297 446.225 478.163 439.4 473.408 467.775C473.408 467.775 373.455 427.885 372.996 427.44C372.538 426.994 426.457 355.272 471.22 348.997L585.635 355.586" fill="#24285B"/>
<path d="M485.054 134.629C485.054 134.629 483.482 135.363 480.744 136.725C460.897 146.589 369.276 185.064 373.442 221.338C378.197 262.629 492.547 241.066 492.547 241.066L512.93 170.235C512.93 170.235 437.54 199.369 435.352 194.037L492.547 147.401" fill="#EAAA2A"/>
<g opacity="0.46">
<path d="M485.054 134.629C485.054 134.629 483.482 135.363 480.744 136.725C460.897 146.589 369.276 185.064 373.442 221.338C378.197 262.629 492.547 241.066 492.547 241.066L512.93 170.235C512.93 170.235 437.54 199.369 435.352 194.037L492.547 147.401" fill="white"/>
</g>
<path d="M496.713 127.018C498.049 127.66 499.228 128.629 500.106 129.821C501.835 132.166 502.333 135.363 501.416 138.127C500.341 141.375 497.564 143.747 494.8 145.79C494.25 146.196 493.687 146.602 493.032 146.812C491.892 147.166 490.621 146.851 489.612 146.209C488.604 145.567 487.805 144.65 487.071 143.707C484.739 140.76 484.268 136.515 485.303 132.978C486.246 129.743 488.918 126.14 492.56 126.075C493.988 126.048 495.416 126.389 496.713 127.005V127.018Z" fill="#F4A28C"/>
<path d="M553.2 164.051C549.676 159.82 542.353 148.751 542.183 129.703L527.013 132.415C527.013 132.415 524.616 161.104 517.987 168.034L518.144 168.178L553.2 164.038V164.051Z" fill="#F4A28C"/>
<g opacity="0.09">
<path d="M553.2 164.051C549.676 159.82 542.353 148.751 542.183 129.703L527.013 132.415C527.013 132.415 524.616 161.104 517.987 168.034L518.144 168.178L553.2 164.038V164.051Z" fill="#000001"/>
</g>
<path d="M515.498 109.87C515.498 109.87 516.022 144.139 534.035 145.331C552.06 146.524 545.68 107.774 545.68 107.774C545.68 107.774 543.165 87.377 532.541 86.0408C521.904 84.7046 510.481 85.5954 515.485 109.87H515.498Z" fill="#F4A28C"/>
<path d="M516.166 117.756C516.166 117.756 506.721 115.988 507.743 120.651C508.765 125.328 507.939 131.786 518.21 127.791L516.166 117.756Z" fill="#F4A28C"/>
<path d="M544.24 112.7C544.24 112.7 554.772 108.979 554.706 113.761C554.641 118.542 555.086 124.817 544.24 122.944V112.713V112.7Z" fill="#F4A28C"/>
<path d="M514.909 116.747C515.577 117.232 516.35 117.468 517.175 117.167C518.236 116.787 518.93 115.791 519.48 114.809C522.153 110.158 523.266 104.63 522.611 99.3112C524.21 102.901 526.03 106.464 528.729 109.346C531.415 112.215 535.096 114.35 539.026 114.455C550.724 114.756 548.995 101.682 547.554 93.8354C546.611 88.7133 544.999 82.8707 540.48 79.7398C538.266 78.194 536.628 78.2726 534.126 78.2464C531.284 78.2071 528.546 77.4342 525.664 77.5652C522.402 77.7224 519.114 78.7311 516.625 80.8533C514.542 82.6349 513.14 85.0846 512.079 87.6129C508.568 95.9445 509.158 104.826 512.433 113.197C512.839 114.245 513.716 115.896 514.882 116.747H514.909Z" fill="#24285B"/>
<path d="M594.399 282.305C587.338 307.09 579.046 331.548 572.234 350.504C531.126 351.709 472.871 363.08 471.665 349.534C470.997 342.211 481.084 342.866 478.189 332.727C476.486 326.74 469.976 298.169 467.12 291.423C451.583 254.703 460.19 215.443 477.875 191.863C507.271 152.68 562.383 149.419 599.744 170.379C617.94 180.597 608.678 232.145 594.386 282.305H594.399Z" fill="#EAAA2A"/>
<path d="M520.83 161.903C519.048 163.108 496.516 215.142 509.721 282.554C509.721 282.554 529.043 190.396 548.51 156.899C548.51 156.899 530.537 157.24 520.817 161.903H520.83Z" fill="white"/>
<g opacity="0.08">
<path d="M600.308 296.283L586.959 349.259L572.234 350.53L471.705 359.136C471.037 351.814 481.098 342.892 478.189 332.74C514.411 326.57 557.929 317.059 541.764 269.297C523.935 216.674 551.248 180.348 551.248 180.348L594.399 282.331L600.308 296.296V296.283Z" fill="#000001"/>
</g>
<path d="M549.715 186.531C551.759 170.156 567.715 159.139 583.736 163.121C605.037 168.414 631.787 185.169 635.795 235.381C642.581 320.596 618.451 360.827 618.451 360.827H485.054V343.967L577.736 332.662C577.736 332.662 542.405 245.245 549.728 186.531H549.715Z" fill="#EAAA2A"/>
<g opacity="0.46">
<path d="M549.715 186.531C551.759 170.156 567.715 159.139 583.736 163.121C605.037 168.414 631.787 185.169 635.795 235.381C642.581 320.596 618.451 360.827 618.451 360.827H485.054V343.967L577.736 332.662C577.736 332.662 542.405 245.245 549.728 186.531H549.715Z" fill="white"/>
</g>
<path d="M514.463 161.589C514.463 161.589 503.774 163.554 499.883 157.763C495.992 151.973 491.407 121.752 490.949 118.725C490.49 115.699 498.599 105.665 501.35 107.604C504.101 109.542 509.367 120.219 507.232 122.315C505.071 124.424 499.896 127.319 499.896 127.319C499.896 127.319 501.507 145.174 505.07 147.768C508.634 150.362 514.463 145.987 516.402 149.301C518.341 152.615 519.873 161.13 514.463 161.576V161.589Z" fill="#FFD200"/>
<path d="M460.151 348.591C457.845 348.591 455.644 348.368 453.574 347.871C447.706 346.443 442.898 342.539 438.077 338.308C434.239 334.941 430.4 331.483 426.667 328.037L425.121 326.609C421.807 323.544 418.375 320.361 414.798 317.505C400.912 306.37 383.516 299.112 365.844 297.043L366.119 294.672C384.236 296.794 402.052 304.235 416.292 315.645C419.934 318.566 423.392 321.762 426.746 324.867L428.291 326.295C432.012 329.727 435.837 333.173 439.662 336.526C444.417 340.705 448.793 344.268 454.138 345.565C466.57 348.578 486.521 340.364 496.883 334.103C503.865 329.897 508.437 325.326 510.848 320.125C513.323 314.793 513.14 308.728 510.586 304.392C508.699 306.566 506.564 308.427 504.219 309.894C501.311 311.715 498.678 312.514 496.202 312.317C493.307 312.095 490.097 310.116 489.534 306.789C489.193 304.732 489.979 302.885 490.7 301.693C492.416 298.864 495.507 297.003 499.189 296.584C503.446 296.099 507.769 297.567 510.546 300.409C510.572 300.436 510.599 300.462 510.625 300.501C513.219 296.846 515.131 292.458 516.192 287.65C517.751 280.51 517.542 272.31 515.55 262.577C514.856 259.184 513.952 255.686 512.053 252.883C510.193 256.367 506.8 259.171 503.564 259.839C501.429 260.284 499.477 259.773 497.931 258.385C496.346 256.957 495.678 254.795 496.084 252.437C496.569 249.712 498.403 247.341 500.761 246.398C504.533 244.878 508.503 246.267 511.293 248.533C515.55 236.534 513.323 220.696 511.673 208.893C511.319 206.391 510.965 203.889 510.599 201.373C508.49 186.793 506.315 171.715 506.551 156.663L508.935 156.702C508.699 171.558 510.861 186.544 512.957 201.033C513.323 203.548 513.677 206.05 514.031 208.552C515.76 220.932 518.105 237.687 513.14 250.367C515.865 253.708 517.018 257.965 517.856 262.079C519.913 272.14 520.122 280.668 518.485 288.135C517.319 293.493 515.118 298.379 512.131 302.401C515.524 307.457 515.93 314.767 512.983 321.107C510.363 326.74 505.49 331.653 498.088 336.12C490.228 340.875 473.63 348.578 460.124 348.578L460.151 348.591ZM500.8 298.877C500.354 298.877 499.896 298.903 499.451 298.955C496.464 299.296 494.08 300.711 492.73 302.925C492.01 304.117 491.708 305.348 491.879 306.383C492.219 308.4 494.433 309.776 496.385 309.933C498.324 310.09 500.485 309.409 502.948 307.876C505.241 306.435 507.324 304.588 509.131 302.427C509.027 302.309 508.922 302.204 508.817 302.086C506.839 300.056 503.865 298.89 500.8 298.89V298.877ZM504.036 248.167C503.223 248.167 502.424 248.311 501.651 248.625C500.066 249.267 498.769 250.97 498.442 252.869C498.167 254.402 498.573 255.765 499.529 256.629C500.499 257.507 501.704 257.795 503.079 257.52C505.725 256.983 508.791 254.271 510.219 251.232C510.271 251.127 510.31 251.009 510.363 250.904C508.673 249.332 506.354 248.18 504.049 248.18L504.036 248.167Z" fill="#24285B"/>
<path d="M372.996 317.846H308.466L314.636 287.244H366.826L372.996 317.846Z" fill="#FFD200"/>
<path d="M330.028 278.166H320.95V287.244H330.028V278.166Z" fill="#FFD200"/>
<path d="M360.512 278.166H351.434V287.244H360.512V278.166Z" fill="#FFD200"/>
<path d="M484.608 346.43C484.608 346.43 434.383 331.876 440.409 360.276H484.608V346.43Z" fill="#F4A28C"/>
<path d="M418.584 41.1211H341.268C325.561 41.1211 312.828 53.8542 312.828 69.5612V93.6128C312.828 109.32 325.561 122.053 341.268 122.053H418.584C434.291 122.053 447.024 109.32 447.024 93.6128V69.5612C447.024 53.8542 434.291 41.1211 418.584 41.1211Z" fill="#F4D18C"/>
<path d="M404.436 118.241C404.436 118.241 417.025 135.651 442.426 130.515C442.426 130.515 419.947 131.157 413.593 111.429L404.449 118.228L404.436 118.241Z" fill="#F4D18C"/>
<g opacity="0.08">
<path d="M353.176 89.5517C357.575 89.5517 361.141 85.9857 361.141 81.5869C361.141 77.188 357.575 73.6221 353.176 73.6221C348.777 73.6221 345.211 77.188 345.211 81.5869C345.211 85.9857 348.777 89.5517 353.176 89.5517Z" fill="#000001"/>
</g>
<g opacity="0.08">
<path d="M379.926 89.5517C384.325 89.5517 387.891 85.9857 387.891 81.5869C387.891 77.188 384.325 73.6221 379.926 73.6221C375.527 73.6221 371.961 77.188 371.961 81.5869C371.961 85.9857 375.527 89.5517 379.926 89.5517Z" fill="#000001"/>
</g>
<g opacity="0.08">
<path d="M406.676 89.5517C411.075 89.5517 414.641 85.9857 414.641 81.5869C414.641 77.188 411.075 73.6221 406.676 73.6221C402.278 73.6221 398.712 77.188 398.712 81.5869C398.712 85.9857 402.278 89.5517 406.676 89.5517Z" fill="#000001"/>
</g>
</svg>
