<svg width="27" height="27" viewBox="0 0 27 27" fill="none" xmlns="http://www.w3.org/2000/svg">
<path d="M23.9321 7.1214C23.1685 7.45078 22.3376 7.68783 21.4817 7.78016C22.3703 7.25225 23.0358 6.41823 23.3532 5.43459C22.5193 5.93062 21.6059 6.27845 20.6533 6.46265C20.2551 6.03702 19.7736 5.69794 19.2387 5.46655C18.7038 5.23515 18.127 5.1164 17.5441 5.11769C15.1861 5.11769 13.2897 7.02908 13.2897 9.37465C13.2897 9.70403 13.3296 10.0334 13.3945 10.3503C9.86365 10.1657 6.7146 8.47884 4.62105 5.89622C4.23958 6.54777 4.03968 7.28965 4.04214 8.04466C4.04214 9.52187 4.79323 10.8244 5.93856 11.5905C5.2636 11.5639 4.60444 11.3784 4.0147 11.049V11.1014C4.0147 13.17 5.47693 14.8842 7.42576 15.2785C7.05984 15.3735 6.68342 15.4222 6.30537 15.4232C6.02839 15.4232 5.76639 15.3958 5.50189 15.3584C6.04087 17.0452 7.61041 18.2704 9.47938 18.3103C8.01714 19.4556 6.1856 20.1293 4.19685 20.1293C3.84003 20.1293 3.51065 20.1169 3.16879 20.0769C5.05523 21.2872 7.2935 21.9858 9.70395 21.9858C17.5292 21.9858 21.8111 15.5031 21.8111 9.8762C21.8111 9.69155 21.8111 9.5069 21.7986 9.32225C22.6271 8.71589 23.3532 7.96481 23.9321 7.1214Z" fill="#4D4D4F"/>
</svg>
