<svg width="38" height="33" viewBox="0 0 38 33" fill="none" xmlns="http://www.w3.org/2000/svg">
<path d="M37.9469 18.6733L30.7726 0.475053C30.6206 0.0888787 30.1861 -0.100441 29.8038 0.0530869H29.8029L0.695606 11.7617C0.577185 11.8135 0.473683 11.8964 0.397222 12.0009C0.154786 12.1281 0.00186489 12.3796 0 12.6546V32.2459C0 32.6622 0.333816 32.9994 0.745958 32.9994H32.0762C32.4883 32.9994 32.8221 32.6622 32.8221 32.2459V21.546L37.531 19.6519C37.9133 19.4984 38.0998 19.0594 37.9469 18.6733ZM31.3302 31.4933H1.49192V13.4091H31.3302V31.4933ZM12.4463 11.9058L24.9364 6.87801C26.0507 8.06196 27.5958 8.73447 29.2126 8.74106L30.4584 11.9058H12.4463ZM32.8221 19.9279V12.6546C32.8221 12.2383 32.4883 11.9011 32.0762 11.9011H32.0641L30.4836 7.89054C30.4658 7.85663 30.4453 7.82555 30.422 7.79541C30.3418 7.43278 30.0089 7.18506 29.6425 7.2152C28.1375 7.35366 26.6661 6.71318 25.7318 5.51416C25.4996 5.22405 25.0903 5.15247 24.7751 5.34556C24.7397 5.34932 24.7043 5.35592 24.6698 5.36534L9.42051 11.4989C9.23589 11.5724 9.08856 11.7174 9.01117 11.9011H4.38064L29.6621 1.73342L36.2852 18.5329L32.8221 19.9279Z" fill="#017DFF"/>
<path d="M3.51613 26.4058C4.96422 26.8381 6.09808 27.9816 6.52793 29.4443C6.62211 29.7636 6.91303 29.9821 7.24219 29.9821C7.28135 29.9793 7.31958 29.9737 7.35688 29.9652C7.39045 29.9746 7.42495 29.9821 7.45945 29.9859H25.3624C25.3932 29.9821 25.424 29.9755 25.4538 29.9671C25.8268 30.0584 26.2016 29.8277 26.293 29.4509C26.293 29.449 26.2939 29.4481 26.2939 29.4471C26.7229 27.9834 27.8558 26.8381 29.3057 26.4048C29.6573 26.2965 29.8755 25.9424 29.8177 25.576C29.8279 25.5392 29.8344 25.5025 29.8391 25.4648V19.4367C29.8344 19.3991 29.827 19.3614 29.8167 19.3256C29.8755 18.9592 29.6563 18.6051 29.3048 18.4967C27.8558 18.0635 26.7219 16.9181 26.2949 15.4544C26.1867 15.0975 25.8333 14.8761 25.4687 14.9373C25.4342 14.9279 25.3988 14.9204 25.3634 14.9166H7.45945C7.42215 14.9213 7.38485 14.9289 7.34849 14.9392C6.98577 14.8808 6.6361 15.1012 6.52793 15.4563C6.09901 16.92 4.96515 18.0644 3.51613 18.4977C3.1646 18.606 2.94641 18.9602 3.00422 19.3265C2.99489 19.3633 2.98743 19.4 2.9837 19.4377V25.4658C2.98837 25.5016 2.99489 25.5364 3.00422 25.5703C2.94361 25.9386 3.16273 26.2956 3.51613 26.4058ZM4.47562 19.7419C5.97313 19.1344 7.16107 17.9354 7.76249 16.4218H25.0594C25.6608 17.9344 26.8487 19.1344 28.3472 19.7419V25.1578C26.8497 25.7662 25.6627 26.9653 25.0603 28.4779H7.76249C7.16013 26.9662 5.97313 25.7672 4.47562 25.1587V19.7419Z" fill="#017DFF"/>
<path d="M16.4109 26.9719C18.8828 26.9719 20.8866 24.9478 20.8866 22.4509C20.8866 19.9539 18.8828 17.9298 16.4109 17.9298C13.9389 17.9298 11.9351 19.9539 11.9351 22.4509C11.9379 24.9469 13.9399 26.9691 16.4109 26.9719ZM16.4109 19.4368C18.0585 19.4368 19.3947 20.7866 19.3947 22.4509C19.3947 24.1152 18.0585 25.4649 16.4109 25.4649C14.7632 25.4649 13.427 24.1152 13.427 22.4509C13.427 20.7866 14.7632 19.4368 16.4109 19.4368Z" fill="#017DFF"/>
<path d="M8.20542 23.5811C8.82363 23.5811 9.32436 23.0753 9.32436 22.4508C9.32436 21.8263 8.82363 21.3206 8.20542 21.3206C7.58721 21.3206 7.08649 21.8263 7.08649 22.4508C7.08649 23.0743 7.58721 23.5811 8.20542 23.5811ZM8.20542 22.0741C8.41149 22.0741 8.5784 22.2427 8.5784 22.4508C8.5784 22.659 8.41149 22.8276 8.20542 22.8276C7.99935 22.8276 7.83244 22.659 7.83244 22.4508C7.83244 22.2427 7.99935 22.0741 8.20542 22.0741Z" fill="#017DFF"/>
<path d="M24.6166 23.5811C25.2348 23.5811 25.7356 23.0753 25.7356 22.4508C25.7356 21.8263 25.2348 21.3206 24.6166 21.3206C23.9984 21.3206 23.4977 21.8263 23.4977 22.4508C23.4977 23.0743 23.9984 23.5811 24.6166 23.5811ZM24.6166 22.0741C24.8227 22.0741 24.9896 22.2427 24.9896 22.4508C24.9896 22.659 24.8227 22.8276 24.6166 22.8276C24.4105 22.8276 24.2436 22.659 24.2436 22.4508C24.2436 22.2427 24.4105 22.0741 24.6166 22.0741Z" fill="#017DFF"/>
</svg>
