<svg width="19" height="24" viewBox="0 0 24 24" fill="none" xmlns="http://www.w3.org/2000/svg">
<path d="M9.07652 3.9304C8.85423 5.12298 7.62147 5.83473 6.47955 5.43151C3.37083 4.3338 1.05592 8.35658 3.55579 10.4987C4.47625 11.2875 4.47625 12.7125 3.55579 13.5013C1.05592 15.6434 3.37083 19.6662 6.47955 18.5685C7.62147 18.1653 8.85423 18.877 9.07652 20.0696C9.68054 23.3101 14.3195 23.3101 14.9235 20.0696C15.1458 18.877 16.3785 18.1653 17.5205 18.5685C20.6292 19.6662 22.9441 15.6434 20.4442 13.5013C19.5237 12.7125 19.5237 11.2875 20.4442 10.4987C22.9441 8.35658 20.6292 4.3338 17.5205 5.43151C16.3785 5.83473 15.1458 5.12298 14.9235 3.9304C14.3195 0.689867 9.68054 0.689867 9.07652 3.9304Z" stroke="#747474" stroke-linejoin="round"/>
<circle cx="4" cy="4" r="3.5" transform="matrix(-1 0 0 1 16 8)" stroke="#747474"/>
</svg>
